<svg version="1.1" id="Layer_1" xmlns="http://www.w3.org/2000/svg" xmlns:xlink="http://www.w3.org/1999/xlink" x="0px" y="0px"
	 width="100%" viewBox="0 0 200 200" enable-background="new 0 0 200 200" xml:space="preserve">
<path fill="#FEFFFE" opacity="1.000000" stroke="none" 
	d="
M122.000000,201.000000 
	C81.358452,201.000000 41.216900,201.000000 1.037675,201.000000 
	C1.037675,134.400162 1.037675,67.800285 1.037675,1.100206 
	C67.558044,1.100206 134.116287,1.100206 200.837265,1.100206 
	C200.837265,67.666344 200.837265,134.333145 200.837265,201.000000 
	C174.800568,201.000000 148.650284,201.000000 122.000000,201.000000 
M85.993690,54.618771 
	C86.299004,54.804512 86.604309,54.990253 86.895035,55.082024 
	C86.895035,55.082024 86.813705,55.131310 87.005928,55.865810 
	C84.338379,58.480671 81.903839,61.407959 78.936577,63.620934 
	C76.073418,65.756271 72.660591,67.154587 69.489243,68.876678 
	C78.201370,69.052200 85.113663,64.991447 91.969925,61.587101 
	C91.871330,64.305138 92.786957,66.133011 96.326805,66.362793 
	C96.604042,66.824844 96.881287,67.286903 97.234047,68.301971 
	C97.524910,68.513390 97.815765,68.724815 98.602859,69.314407 
	C99.653793,70.580406 100.704720,71.846397 101.954208,73.635666 
	C102.247322,73.845856 102.540436,74.056046 102.840340,74.110870 
	C102.840340,74.110870 102.693100,74.160889 102.791641,74.753670 
	C103.178528,75.192749 103.565407,75.631828 103.997673,76.012688 
	C103.997673,76.012688 103.926392,76.031876 104.025757,76.573181 
	C104.303932,76.792030 104.582100,77.010880 104.880028,77.089386 
	C104.880028,77.089386 104.740730,77.115547 104.832794,77.711349 
	C105.206421,78.163078 105.580055,78.614799 106.000458,79.006859 
	C106.000458,79.006859 105.934021,79.043297 105.991814,79.515419 
	C106.099220,79.844856 106.319054,80.058723 106.813354,80.720039 
	C107.183151,81.155144 107.552948,81.590248 108.018005,82.691734 
	C109.007477,84.131416 109.996941,85.571106 111.000000,87.000000 
	C111.000000,87.000000 110.987831,87.013161 111.071587,87.653114 
	C111.674210,88.529099 112.276840,89.405090 112.909340,90.874443 
	C112.970039,91.264740 113.030746,91.655045 112.538887,92.447617 
	C109.139565,94.535355 105.675201,96.525726 102.360390,98.739967 
	C99.423187,100.701950 96.652245,102.912834 93.221687,105.346512 
	C90.195740,106.575233 87.169800,107.803955 83.576477,109.002403 
	C83.387993,108.999504 83.199516,108.996613 82.168877,108.920021 
	C81.764931,109.449692 81.360985,109.979355 80.912605,110.487129 
	C80.912605,110.487129 80.846817,110.479630 80.268326,109.948547 
	C78.474007,110.596977 76.679695,111.245407 74.787590,111.812820 
	C74.787590,111.812820 74.661972,111.831467 73.899879,111.845505 
	C71.233414,113.172997 68.559616,114.486053 65.903366,115.833679 
	C64.428909,116.581734 63.065426,117.669487 61.511566,118.119713 
	C53.663750,120.393593 45.769814,122.508293 37.062576,124.824242 
	C31.808212,125.894615 26.553846,126.964981 21.299480,128.035355 
	C21.394196,128.545639 21.488909,129.055939 21.583624,129.566238 
	C28.558149,128.394669 35.532677,127.223114 43.323311,126.090469 
	C45.288139,125.849785 47.296463,125.790298 49.208866,125.331230 
	C53.360283,124.334656 57.462303,123.132500 61.585236,122.017044 
	C68.966881,120.019966 76.349060,118.024834 84.103424,116.597412 
	C85.400276,116.394814 86.697128,116.192215 88.430466,116.039024 
	C88.632729,115.730690 88.834984,115.422356 88.757431,114.512543 
	C88.536453,114.504417 88.315475,114.496284 88.369881,114.529778 
	C88.581520,114.420341 88.628723,114.262108 89.446083,114.181602 
	C90.990921,113.760445 92.535759,113.339294 94.099541,112.594276 
	C94.099541,112.594276 94.021904,112.279274 94.728165,112.067795 
	C95.581604,111.720032 96.435036,111.372269 97.544708,111.120392 
	C97.544708,111.120392 97.816719,111.149658 98.332993,111.712181 
	C100.361107,111.354446 102.466530,111.231384 104.402405,110.593666 
	C109.589470,108.884956 114.703911,106.955780 120.069588,105.819534 
	C121.653862,109.975960 123.341484,114.096558 124.798019,118.297272 
	C126.948547,124.499512 125.547325,127.090782 118.372162,129.707764 
	C113.949677,131.232101 109.527199,132.756454 105.104713,134.280792 
	C105.256180,134.835190 105.407646,135.389587 105.559113,135.943985 
	C110.555244,134.793823 115.906921,135.133835 120.983856,131.082245 
	C123.312271,130.416626 125.640686,129.751007 128.011353,129.994385 
	C129.417252,138.935867 126.782402,145.779297 117.988289,149.503815 
	C114.624901,150.928299 111.322441,152.496689 107.173141,153.996689 
	C101.607765,155.176514 96.042389,156.356339 90.477013,157.536163 
	C90.501022,157.902405 90.525040,158.268631 90.549049,158.634872 
	C96.368744,158.049820 102.188438,157.464752 108.904556,156.892715 
	C109.744720,156.596298 110.584892,156.299881 111.522362,156.185303 
	C111.522362,156.185303 111.847626,155.957870 112.617958,155.945404 
	C122.478577,152.374054 132.002426,148.239471 139.027679,140.029816 
	C139.027679,140.029816 139.090286,140.131561 139.716812,139.918045 
	C141.261108,138.054672 142.805405,136.191284 144.165512,133.967834 
	C144.165512,133.967834 144.331970,134.333710 144.866791,134.059464 
	C145.255905,133.377182 145.645004,132.694901 146.445709,131.802444 
	C146.706375,131.590179 146.824326,131.316422 147.207672,130.630066 
	C147.267578,130.460922 147.327484,130.291794 147.909927,129.714523 
	C151.006485,124.262390 153.891556,118.748863 153.756973,111.211754 
	C151.166214,113.392899 149.468048,114.822578 147.110535,116.807358 
	C147.110535,114.952316 147.110535,113.995346 147.716019,112.774147 
	C149.460480,110.516022 151.204941,108.257896 153.500198,105.529724 
	C154.144485,102.389481 155.337296,99.242012 155.296051,96.110802 
	C155.242935,92.077896 154.200989,88.058014 154.077972,83.662018 
	C158.773560,78.106133 165.335556,74.182922 167.465866,66.379440 
	C168.659821,62.005867 168.109589,56.446121 164.821777,53.157291 
	C157.730499,46.063782 148.769669,46.182888 139.498566,46.712910 
	C142.329742,48.161728 145.160919,49.610546 148.278656,51.613708 
	C149.211823,52.409763 150.145004,53.205822 150.980301,54.752716 
	C153.875946,59.675827 155.891968,64.663551 151.445892,69.786247 
	C148.608475,68.200081 145.771042,66.613922 142.487350,64.804390 
	C142.214249,64.581589 142.059479,64.294907 142.022156,63.201916 
	C140.326614,61.818779 138.631073,60.435646 137.002457,59.007145 
	C137.002457,59.007145 136.951294,59.070042 136.917313,58.339199 
	C136.017975,54.742397 133.699951,52.981342 129.999893,53.000629 
	C129.999893,53.000629 129.998932,52.993568 129.759232,52.530354 
	C129.448578,52.397007 129.137909,52.263660 128.963043,52.125820 
	C128.963043,52.125820 128.845764,52.194408 128.856003,51.453442 
	C127.066002,48.240002 124.155525,47.684757 120.393639,48.036217 
	C120.393639,48.036217 119.990555,47.827583 119.668884,47.402439 
	C119.330994,47.318726 118.993095,47.235016 118.305824,47.164619 
	C118.305824,47.164619 118.003136,46.989624 117.867645,46.274395 
	C115.570122,45.877293 113.272598,45.480190 110.634766,45.169952 
	C110.634766,45.169952 110.285110,45.136711 109.503143,45.053047 
	C108.225403,44.978523 106.947662,44.903999 105.354103,44.661263 
	C105.354103,44.661263 105.165878,44.356945 104.756180,43.747787 
	C100.126938,43.989571 95.497704,44.231354 90.418900,44.717995 
	C90.276291,44.811699 90.133682,44.905403 89.527412,44.820747 
	C89.527412,44.820747 89.039864,44.725376 88.674934,44.369373 
	C88.111122,44.566841 87.547310,44.764305 86.223618,45.126595 
	C83.817223,45.794163 81.410828,46.461731 77.916466,47.431118 
	C80.218781,49.147610 81.573296,50.157471 82.933464,51.061245 
	C82.933464,51.061245 82.829575,51.083435 83.015305,51.676468 
	C83.649811,52.174377 84.284317,52.672283 84.938049,53.071514 
	C84.938049,53.071514 84.838013,53.081490 85.008781,53.603729 
	C85.308807,53.794472 85.608833,53.985214 85.922882,54.075153 
	C85.922882,54.075153 85.822983,54.094589 85.993690,54.618771 
M70.378082,57.216446 
	C72.540474,57.384411 74.702873,57.552376 77.130325,57.740925 
	C75.225998,54.921150 73.826958,52.849560 72.294853,50.580940 
	C69.629303,51.923916 68.169960,53.664539 70.378082,57.216446 
z"/>
<path fill="#909292" opacity="1.000000" stroke="none" 
	d="
M119.847191,105.114182 
	C114.703911,106.955780 109.589470,108.884956 104.402405,110.593666 
	C102.466530,111.231384 100.361107,111.354446 98.144730,111.140236 
	C98.025482,110.381493 98.094513,110.194695 98.426292,109.986221 
	C98.136215,109.598358 97.583382,109.232178 97.025345,108.485382 
	C97.006538,107.092766 96.992935,106.080750 97.264435,104.927582 
	C98.330292,104.487152 99.111046,104.187874 100.031334,104.195602 
	C100.617744,105.373688 101.064606,106.244766 102.031456,108.129456 
	C102.031456,105.721008 102.031456,104.464073 102.399933,103.164352 
	C103.506126,103.048813 104.243843,102.976059 104.983139,103.256012 
	C104.984711,104.932274 104.984711,106.255814 104.984711,107.019089 
	C109.474182,104.943146 113.735718,102.972595 118.361839,100.997162 
	C120.819878,99.664078 122.913330,98.335884 125.379051,97.007156 
	C126.495567,97.008362 127.239799,97.010094 128.309830,96.877380 
	C132.753799,93.825523 136.871964,90.908112 141.331299,87.961983 
	C143.125717,86.967232 144.578964,86.001198 146.371414,84.969757 
	C147.148483,83.944244 147.586365,82.984131 148.390686,82.015686 
	C153.653076,80.352821 156.507278,76.808365 158.345490,71.962463 
	C159.455383,70.613953 160.228943,69.315102 161.360229,67.946198 
	C162.151016,66.585014 162.584045,65.293877 163.342606,63.954140 
	C163.931931,63.267723 164.587997,62.464920 164.399704,62.017265 
	C162.183044,56.747131 159.172958,52.222466 152.986328,50.695908 
	C151.483124,49.730629 150.018219,49.045380 148.228317,48.208107 
	C148.124695,49.458942 148.058395,50.259155 147.992096,51.059364 
	C145.160919,49.610546 142.329742,48.161728 139.498566,46.712910 
	C148.769669,46.182888 157.730499,46.063782 164.821777,53.157291 
	C168.109589,56.446121 168.659821,62.005867 167.465866,66.379440 
	C165.335556,74.182922 158.773560,78.106133 153.467987,83.912750 
	C145.240387,89.436028 137.622772,94.708580 129.670883,99.990067 
	C128.219330,100.637444 127.102058,101.275887 125.678406,101.841888 
	C123.530411,102.884361 121.688797,103.999268 119.847191,105.114182 
M146.592697,48.515919 
	C146.592697,48.515919 146.474075,48.588013 146.592697,48.515919 
z"/>
<path fill="#709E41" opacity="1.000000" stroke="none" 
	d="
M142.023010,63.944347 
	C142.059479,64.294907 142.214249,64.581589 142.778595,65.249687 
	C144.344162,67.580475 145.618500,69.465965 146.892853,71.351456 
	C147.285049,71.914413 147.677261,72.477364 148.069473,73.040321 
	C145.157272,75.231270 142.245087,77.422211 139.175674,79.256470 
	C138.095932,77.281410 137.173416,75.663033 136.264282,74.068108 
	C134.305603,75.679581 132.984634,77.695534 131.492584,77.831276 
	C125.406937,78.384949 119.237930,78.805878 113.162453,78.379837 
	C109.778290,78.142525 109.005501,79.159714 108.732971,81.984711 
	C108.282776,82.005928 108.102753,82.015648 107.922737,82.025360 
	C107.552948,81.590248 107.183151,81.155144 106.947945,80.317978 
	C106.699699,79.625038 106.316856,79.334167 105.934021,79.043297 
	C105.934021,79.043297 106.000458,79.006859 105.966637,78.716217 
	C105.535454,77.988892 105.138092,77.552223 104.740730,77.115547 
	C104.740730,77.115547 104.880028,77.089386 104.817154,76.890869 
	C104.478317,76.472191 104.202354,76.252037 103.926392,76.031876 
	C103.926392,76.031876 103.997673,76.012688 103.963715,75.719009 
	C103.517532,75.003853 103.105316,74.582367 102.693100,74.160889 
	C102.693100,74.160889 102.840340,74.110870 102.772125,73.904877 
	C102.387817,73.503387 102.071732,73.307892 101.755653,73.112396 
	C100.704720,71.846397 99.653793,70.580406 98.348755,68.848877 
	C98.074013,68.200081 98.053383,68.016823 98.282631,67.598511 
	C104.052956,68.066734 109.556419,69.104774 115.098274,69.385864 
	C121.566498,69.713951 128.092453,69.018425 134.547836,69.449234 
	C139.738007,69.795609 140.583237,69.501930 141.297440,63.852745 
	C141.536469,63.902542 142.023010,63.944347 142.023010,63.944347 
z"/>
<path fill="#74A541" opacity="1.000000" stroke="none" 
	d="
M141.058411,63.802940 
	C140.583237,69.501930 139.738007,69.795609 134.547836,69.449234 
	C128.092453,69.018425 121.566498,69.713951 115.098274,69.385864 
	C109.556419,69.104774 104.052956,68.066734 98.064423,67.574364 
	C97.596329,67.785263 97.158531,67.748955 97.158531,67.748955 
	C96.881287,67.286903 96.604042,66.824844 96.011223,65.854889 
	C94.937996,64.175468 94.180344,63.003963 93.371483,61.753258 
	C95.725182,60.204945 97.621590,58.957447 99.874542,57.933521 
	C102.146561,59.104649 104.012436,60.724430 105.987068,60.870121 
	C111.305252,61.262512 116.671249,60.955460 122.015564,61.061905 
	C126.185600,61.144958 130.351685,61.518425 134.519211,61.512951 
	C135.014069,61.512302 135.506836,59.935490 136.237854,59.065651 
	C136.475159,59.042015 136.951294,59.070042 136.951294,59.070042 
	C136.951294,59.070042 137.002457,59.007145 137.087219,59.332676 
	C138.467453,61.039787 139.762939,62.421364 141.058411,63.802940 
z"/>
<path fill="#618A3F" opacity="1.000000" stroke="none" 
	d="
M130.005157,99.981133 
	C137.622772,94.708580 145.240387,89.436028 153.221466,84.098000 
	C154.200989,88.058014 155.242935,92.077896 155.296051,96.110802 
	C155.337296,99.242012 154.144485,102.389481 152.863922,105.757881 
	C151.454147,104.108765 150.680664,102.231499 149.591171,99.587311 
	C148.633301,100.746666 147.843994,101.737785 147.014801,102.694359 
	C146.345840,103.466110 145.651505,104.818443 144.929352,104.844856 
	C139.803452,105.032364 134.667480,104.944695 129.406967,104.944695 
	C129.656281,102.875900 129.830719,101.428513 130.005157,99.981133 
z"/>
<path fill="#699540" opacity="1.000000" stroke="none" 
	d="
M109.003143,81.973213 
	C109.005501,79.159714 109.778290,78.142525 113.162453,78.379837 
	C119.237930,78.805878 125.406937,78.384949 131.492584,77.831276 
	C132.984634,77.695534 134.305603,75.679581 136.264282,74.068108 
	C137.173416,75.663033 138.095932,77.281410 138.991058,79.519897 
	C135.418549,82.997574 131.873428,85.855133 128.031769,88.763260 
	C126.263649,89.583122 124.792076,90.352409 123.048431,91.162430 
	C122.511047,91.445244 122.245743,91.687325 121.971581,91.962723 
	C121.962723,91.996056 121.902512,91.961952 121.522614,91.969177 
	C118.449989,90.952087 115.807709,95.818649 113.091446,92.045341 
	C113.030746,91.655045 112.970039,91.264740 112.929962,90.201141 
	C112.296341,88.689613 111.642082,87.851387 110.987831,87.013161 
	C110.987831,87.013161 111.000000,87.000000 110.968864,86.654724 
	C110.292862,84.864029 109.648003,83.418625 109.003143,81.973213 
z"/>
<path fill="#5C843C" opacity="1.000000" stroke="none" 
	d="
M129.670883,99.990067 
	C129.830719,101.428513 129.656281,102.875900 129.406967,104.944695 
	C134.667480,104.944695 139.803452,105.032364 144.929352,104.844856 
	C145.651505,104.818443 146.345840,103.466110 147.014801,102.694359 
	C147.843994,101.737785 148.633301,100.746666 149.591171,99.587311 
	C150.680664,102.231499 151.454147,104.108765 152.588531,105.992905 
	C151.204941,108.257896 149.460480,110.516022 147.060394,112.942993 
	C144.604965,114.073013 142.805191,115.034187 140.603607,116.003845 
	C136.873840,116.781128 133.384003,118.441963 131.165787,113.970024 
	C130.897522,113.429222 129.680786,112.983276 128.993484,113.087257 
	C124.724518,113.733093 123.028389,110.644592 122.645477,107.660789 
	C122.421677,105.916870 124.785233,103.840919 125.984787,101.914337 
	C127.102058,101.275887 128.219330,100.637444 129.670883,99.990067 
z"/>
<path fill="#9A9B9D" opacity="1.000000" stroke="none" 
	d="
M153.024612,50.975937 
	C159.172958,52.222466 162.183044,56.747131 164.399704,62.017265 
	C164.587997,62.464920 163.931931,63.267723 163.007568,63.949123 
	C161.303955,63.696175 160.260925,63.399635 159.217728,63.103058 
	C159.868774,64.895287 160.435623,66.455772 161.002487,68.016251 
	C160.228943,69.315102 159.455383,70.613953 158.360275,71.674393 
	C158.111588,70.781754 158.184464,70.127518 158.403534,68.160995 
	C156.759445,70.495232 155.879807,71.744125 154.732178,73.111580 
	C153.973679,73.818581 153.483139,74.407021 152.996307,74.997726 
	C153.000000,75.000000 152.995331,74.993065 152.750305,75.159363 
	C152.335892,75.877441 152.166489,76.429214 151.996582,76.988785 
	C151.996094,76.996582 151.981552,77.002289 151.755920,77.103149 
	C151.256729,77.406479 151.059937,77.666962 150.690201,78.095734 
	C149.963669,78.468575 149.486862,78.731148 148.728165,79.126213 
	C147.617249,80.169693 146.788193,81.080673 145.748428,82.097931 
	C145.276199,82.397682 145.093781,82.648659 144.679398,83.100311 
	C142.904465,84.487663 141.440582,85.731819 139.608459,86.982811 
	C135.493484,89.326637 131.746750,91.663628 127.660706,93.998734 
	C126.546066,93.660393 125.770737,93.323929 125.193283,92.729614 
	C127.038940,91.383369 128.686722,90.294968 130.660156,89.110657 
	C139.104797,83.905617 147.163864,78.729645 152.106033,70.077477 
	C155.891968,64.663551 153.875946,59.675827 151.367676,54.317871 
	C152.178238,52.913994 152.601425,51.944965 153.024612,50.975937 
M155.476410,57.374283 
	C155.531128,57.160606 155.585846,56.946930 155.640579,56.733257 
	C155.505676,56.870598 155.370773,57.007935 155.476410,57.374283 
M157.738647,67.183487 
	C157.624985,67.026688 157.511337,66.869896 157.397675,66.713097 
	C157.420563,66.931190 157.443451,67.149292 157.738647,67.183487 
z"/>
<path fill="#B1B1B2" opacity="1.000000" stroke="none" 
	d="
M37.892056,124.678833 
	C45.769814,122.508293 53.663750,120.393593 61.511566,118.119713 
	C63.065426,117.669487 64.428909,116.581734 65.903366,115.833679 
	C68.559616,114.486053 71.233414,113.172997 74.521080,112.154396 
	C77.759361,112.624428 80.376442,112.785576 83.146248,113.200409 
	C83.869308,113.977844 84.439644,114.501602 84.839165,115.242920 
	C84.355904,115.649948 84.043465,115.839424 83.731018,116.028893 
	C76.349060,118.024834 68.966881,120.019966 61.585236,122.017044 
	C57.462303,123.132500 53.360283,124.334656 49.208866,125.331230 
	C47.296463,125.790298 45.288139,125.849785 42.479267,126.055649 
	C40.387501,125.573494 39.139778,125.126160 37.892056,124.678833 
M72.076469,115.520157 
	C72.222000,115.766098 72.367538,116.012039 72.513069,116.257980 
	C72.647209,116.004570 72.941330,115.690323 72.874084,115.513489 
	C72.794067,115.303062 72.403763,115.210617 72.076469,115.520157 
z"/>
<path fill="#83B34A" opacity="1.000000" stroke="none" 
	d="
M89.991074,44.999111 
	C90.133682,44.905403 90.276291,44.811699 91.049324,44.711548 
	C96.175125,44.589050 100.670502,44.473000 105.165878,44.356945 
	C105.165878,44.356945 105.354103,44.661263 105.338676,45.088375 
	C104.216980,47.343975 103.110710,49.172462 101.783051,51.102272 
	C101.284882,51.396835 101.094406,51.654003 100.907516,52.203892 
	C100.659462,52.736603 100.408936,52.930401 99.831825,53.116646 
	C99.398125,53.503494 99.205818,53.787785 98.885605,54.356812 
	C97.800140,55.413422 96.842598,56.185295 95.571434,57.004513 
	C94.806313,57.462502 94.354797,57.873146 93.823166,58.448273 
	C93.743042,58.612751 93.455170,58.838623 93.254250,58.482269 
	C90.973457,57.127716 88.893578,56.129513 86.813705,55.131310 
	C86.813705,55.131310 86.895035,55.082024 86.817970,54.865326 
	C86.434929,54.463947 86.128960,54.279270 85.822983,54.094589 
	C85.822983,54.094589 85.922882,54.075153 85.833206,53.862480 
	C85.441696,53.460369 85.139854,53.270931 84.838013,53.081490 
	C84.838013,53.081490 84.938049,53.071514 84.844070,52.816193 
	C84.109917,52.068390 83.469742,51.575912 82.829575,51.083435 
	C82.829575,51.083435 82.933464,51.061245 82.824524,50.754021 
	C83.197968,49.293961 83.365692,47.619137 84.229225,47.098583 
	C85.947372,46.062878 88.048294,45.662170 89.991074,44.999111 
z"/>
<path fill="#4D7535" opacity="1.000000" stroke="none" 
	d="
M146.799561,130.981155 
	C146.824326,131.316422 146.706375,131.590179 145.892578,131.955200 
	C145.003601,132.849869 144.667786,133.591782 144.331970,134.333710 
	C144.331970,134.333710 144.165512,133.967834 143.887268,134.073273 
	C142.102783,136.162994 140.596527,138.147278 139.090286,140.131561 
	C139.090286,140.131561 139.027679,140.029816 138.632980,140.031754 
	C135.273575,139.524658 131.026093,141.482056 130.169952,136.745316 
	C129.730453,134.313690 130.690735,131.629074 131.298676,128.850098 
	C132.935196,127.517326 134.137833,125.766235 135.677139,125.389030 
	C139.951187,124.341705 144.365265,123.865891 148.894363,123.136864 
	C147.984772,125.297318 146.998718,127.639381 146.086426,130.188934 
	C146.304077,130.667053 146.517197,130.861954 146.799561,130.981155 
z"/>
<path fill="#527242" opacity="1.000000" stroke="none" 
	d="
M131.018433,129.058777 
	C130.690735,131.629074 129.730453,134.313690 130.169952,136.745316 
	C131.026093,141.482056 135.273575,139.524658 138.683258,140.063995 
	C132.002426,148.239471 122.478577,152.374054 112.161629,155.946808 
	C111.705299,155.948196 111.425056,156.003464 111.425064,156.003479 
	C110.584892,156.299881 109.744720,156.596298 108.451294,156.526184 
	C107.996101,155.439606 107.994164,154.719543 107.992218,153.999496 
	C111.322441,152.496689 114.624901,150.928299 117.988289,149.503815 
	C126.782402,145.779297 129.417252,138.935867 128.034653,129.214417 
	C128.693893,127.962173 129.329834,127.489891 130.081802,127.280197 
	C130.471375,128.048126 130.744904,128.553452 131.018433,129.058777 
z"/>
<path fill="#587E40" opacity="1.000000" stroke="none" 
	d="
M129.965759,127.017609 
	C129.329834,127.489891 128.693893,127.962173 128.013519,128.759918 
	C125.640686,129.751007 123.312271,130.416626 120.354202,130.983215 
	C119.494850,130.405380 119.265152,129.926575 119.035461,129.447754 
	C125.547325,127.090782 126.948547,124.499512 124.798019,118.297272 
	C123.341484,114.096558 121.653862,109.975960 119.958389,105.466858 
	C121.688797,103.999268 123.530411,102.884361 125.678406,101.841896 
	C124.785233,103.840919 122.421677,105.916870 122.645477,107.660789 
	C123.028389,110.644592 124.724518,113.733093 128.993484,113.087257 
	C129.680786,112.983276 130.897522,113.429222 131.165787,113.970024 
	C133.384003,118.441963 136.873840,116.781128 140.567123,116.351456 
	C140.183304,117.514267 139.491150,118.399956 138.674728,119.150452 
	C135.794754,121.797874 132.872177,124.398949 129.965759,127.017609 
z"/>
<path fill="#5E8047" opacity="1.000000" stroke="none" 
	d="
M130.081802,127.280197 
	C132.872177,124.398949 135.794754,121.797874 138.674728,119.150452 
	C139.491150,118.399956 140.183304,117.514267 140.968933,116.342972 
	C142.805191,115.034187 144.604965,114.073013 146.757645,113.075104 
	C147.110535,113.995346 147.110535,114.952316 147.110535,116.807358 
	C149.468048,114.822578 151.166214,113.392899 153.756973,111.211754 
	C153.891556,118.748863 151.006485,124.262390 147.305145,129.881134 
	C146.471130,130.025650 146.241882,130.003555 146.012665,129.981445 
	C146.998718,127.639381 147.984772,125.297318 148.894363,123.136864 
	C144.365265,123.865891 139.951187,124.341705 135.677139,125.389030 
	C134.137833,125.766235 132.935196,127.517326 131.298676,128.850098 
	C130.744904,128.553452 130.471375,128.048126 130.081802,127.280197 
z"/>
<path fill="#84B24D" opacity="1.000000" stroke="none" 
	d="
M119.990555,47.827583 
	C119.990555,47.827583 120.393639,48.036217 120.832367,48.331371 
	C123.795990,49.815819 126.320877,51.005112 128.845764,52.194405 
	C128.845764,52.194408 128.963043,52.125820 129.001236,52.371025 
	C129.359268,52.742008 129.679092,52.867790 129.998932,52.993568 
	C129.998932,52.993568 129.999893,53.000629 130.084747,53.235512 
	C130.500946,53.838932 130.832291,54.207478 131.003967,54.882492 
	C128.716980,54.689472 126.613953,53.987179 124.457733,53.728844 
	C118.199356,52.979031 111.919655,52.407303 105.809242,51.469299 
	C107.408485,49.160831 108.846794,47.148769 110.285110,45.136711 
	C110.285110,45.136711 110.634766,45.169952 111.078842,45.359577 
	C113.682983,46.029343 115.843063,46.509483 118.003136,46.989624 
	C118.003136,46.989624 118.305824,47.164619 118.642792,47.373772 
	C119.316696,47.664478 119.653625,47.746029 119.990555,47.827583 
z"/>
<path fill="#82A957" opacity="1.000000" stroke="none" 
	d="
M86.909821,55.498558 
	C88.893578,56.129513 90.973457,57.127716 93.101257,58.672440 
	C92.755013,59.739506 92.360832,60.260048 91.966644,60.780586 
	C85.113663,64.991447 78.201370,69.052200 69.489243,68.876678 
	C72.660591,67.154587 76.073418,65.756271 78.936577,63.620934 
	C81.903839,61.407959 84.338379,58.480671 86.909821,55.498558 
z"/>
<path fill="#F0F8E6" opacity="1.000000" stroke="none" 
	d="
M151.775970,69.931862 
	C147.163864,78.729645 139.104797,83.905617 130.157745,88.986740 
	C128.995895,88.876732 128.662094,88.794716 128.328308,88.712692 
	C131.873428,85.855133 135.418549,82.997574 139.148285,79.876587 
	C142.245087,77.422211 145.157272,75.231270 148.069473,73.040321 
	C147.677261,72.477364 147.285049,71.914413 146.892853,71.351456 
	C145.618500,69.465965 144.344162,67.580475 143.001724,65.361374 
	C145.771042,66.613922 148.608475,68.200081 151.775970,69.931862 
z"/>
<path fill="#6E8C53" opacity="1.000000" stroke="none" 
	d="
M112.815170,92.246475 
	C115.807709,95.818649 118.449989,90.952087 121.319122,92.237396 
	C116.314903,95.320671 111.134285,98.142937 105.979111,100.979477 
	C106.004555,100.993752 105.973839,100.944016 105.614349,100.902649 
	C103.811546,101.572586 102.368233,102.283890 100.699516,103.072395 
	C100.201111,103.333748 100.007004,103.580078 99.891792,103.888596 
	C99.111046,104.187874 98.330292,104.487152 96.869263,104.897316 
	C95.395287,105.010078 94.601601,105.011963 93.807907,105.013840 
	C96.652245,102.912834 99.423187,100.701950 102.360390,98.739967 
	C105.675201,96.525726 109.139565,94.535355 112.815170,92.246475 
z"/>
<path fill="#9B9F9E" opacity="1.000000" stroke="none" 
	d="
M93.514801,105.180176 
	C94.601601,105.011963 95.395287,105.010078 96.584160,105.038467 
	C96.992935,106.080750 97.006538,107.092766 97.007408,108.765152 
	C96.993294,109.611374 96.991920,109.797211 96.652473,109.992088 
	C95.545563,110.338806 94.776726,110.676476 93.675789,111.006302 
	C92.901314,110.976791 92.458946,110.955124 91.827606,110.687996 
	C90.735603,110.618294 89.832573,110.794052 88.569221,111.009918 
	C86.470451,111.682251 84.731987,112.314484 82.993523,112.946724 
	C80.376442,112.785576 77.759361,112.624428 74.902130,112.147377 
	C74.661972,111.831467 74.787590,111.812820 75.211472,111.885284 
	C76.829002,111.669128 78.022644,111.380508 79.302650,111.383301 
	C80.262306,111.461792 81.135605,111.248871 82.352470,111.022171 
	C83.178642,110.349823 83.661247,109.691246 84.143852,109.032677 
	C87.169800,107.803955 90.195740,106.575233 93.514801,105.180176 
z"/>
<path fill="#DDF3C5" opacity="1.000000" stroke="none" 
	d="
M91.968285,61.183846 
	C92.360832,60.260048 92.755013,59.739506 93.302185,59.028793 
	C93.455170,58.838623 93.743042,58.612751 94.134392,58.383766 
	C94.978844,57.755581 95.431946,57.356373 95.885048,56.957165 
	C96.842598,56.185295 97.800140,55.413422 99.122559,54.247536 
	C99.682693,53.573711 99.877960,53.293896 100.073219,53.014080 
	C100.408936,52.930401 100.659462,52.736603 101.108215,52.187622 
	C101.391617,51.942558 101.794250,51.941006 102.177277,51.959946 
	C103.326958,51.966854 104.093628,51.954819 104.753571,52.249214 
	C102.937233,54.273743 101.227615,55.991844 99.517998,57.709946 
	C97.621590,58.957447 95.725182,60.204945 93.371483,61.753258 
	C94.180344,63.003963 94.937996,64.175468 95.789734,65.696716 
	C92.786957,66.133011 91.871330,64.305138 91.968285,61.183846 
z"/>
<path fill="#5E7051" opacity="1.000000" stroke="none" 
	d="
M107.582680,153.998093 
	C107.994164,154.719543 107.996101,155.439606 108.003082,156.519669 
	C102.188438,157.464752 96.368744,158.049820 90.549049,158.634872 
	C90.525040,158.268631 90.501022,157.902405 90.477013,157.536163 
	C96.042389,156.356339 101.607765,155.176514 107.582680,153.998093 
z"/>
<path fill="#647E53" opacity="1.000000" stroke="none" 
	d="
M118.703812,129.577759 
	C119.265152,129.926575 119.494850,130.405380 119.972900,131.005219 
	C115.906921,135.133835 110.555244,134.793823 105.559113,135.943985 
	C105.407646,135.389587 105.256180,134.835190 105.104713,134.280792 
	C109.527199,132.756454 113.949677,131.232101 118.703812,129.577759 
z"/>
<path fill="#999999" opacity="1.000000" stroke="none" 
	d="
M37.477318,124.751541 
	C39.139778,125.126160 40.387501,125.573494 42.071213,126.036194 
	C35.532677,127.223114 28.558149,128.394669 21.583624,129.566238 
	C21.488909,129.055939 21.394196,128.545639 21.299480,128.035355 
	C26.553846,126.964981 31.808212,125.894615 37.477318,124.751541 
z"/>
<path fill="#95B46B" opacity="1.000000" stroke="none" 
	d="
M70.068832,56.993633 
	C68.169960,53.664539 69.629303,51.923916 72.294853,50.580940 
	C73.826958,52.849560 75.225998,54.921150 77.130325,57.740925 
	C74.702873,57.552376 72.540474,57.384411 70.068832,56.993633 
z"/>
<path fill="#F0F8E6" opacity="1.000000" stroke="none" 
	d="
M104.860291,51.942780 
	C104.093628,51.954819 103.326958,51.966854 102.252274,51.729958 
	C101.944260,51.481030 102.004448,51.000950 102.004448,51.000950 
	C103.110710,49.172462 104.216980,47.343975 105.496582,45.172482 
	C106.947662,44.903999 108.225403,44.978523 109.894127,45.094879 
	C108.846794,47.148769 107.408485,49.160831 105.611076,51.507114 
	C105.251984,51.841339 104.860291,51.942780 104.860291,51.942780 
z"/>
<path fill="#82A957" opacity="1.000000" stroke="none" 
	d="
M89.759247,44.909927 
	C88.048294,45.662170 85.947372,46.062878 84.229225,47.098583 
	C83.365692,47.619137 83.197968,49.293961 82.821693,50.807064 
	C81.573296,50.157471 80.218781,49.147610 77.916466,47.431118 
	C81.410828,46.461731 83.817223,45.794163 86.952927,45.093521 
	C88.134781,44.948753 88.587326,44.837067 89.039864,44.725376 
	C89.039864,44.725376 89.527412,44.820747 89.759247,44.909927 
z"/>
<path fill="#A0A1A3" opacity="1.000000" stroke="none" 
	d="
M152.986328,50.695908 
	C152.601425,51.944965 152.178238,52.913994 151.416611,53.942451 
	C150.145004,53.205822 149.211823,52.409763 148.135376,51.336540 
	C148.058395,50.259155 148.124695,49.458942 148.228317,48.208107 
	C150.018219,49.045380 151.483124,49.730629 152.986328,50.695908 
z"/>
<path fill="#DDF3C5" opacity="1.000000" stroke="none" 
	d="
M104.961029,44.052368 
	C100.670502,44.473000 96.175125,44.589050 91.274109,44.589123 
	C95.497704,44.231354 100.126938,43.989571 104.961029,44.052368 
z"/>
<path fill="#A8A9AD" opacity="1.000000" stroke="none" 
	d="
M83.146248,113.200409 
	C84.731987,112.314484 86.470451,111.682251 88.762268,111.259933 
	C89.907173,111.639061 90.498726,111.808266 91.069626,112.212021 
	C91.048965,112.446587 91.065178,112.917244 90.720337,112.997849 
	C89.754150,113.403984 89.132820,113.729523 88.511490,114.055069 
	C88.628723,114.262108 88.581520,114.420341 87.977417,114.564224 
	C86.726631,114.740898 85.868301,114.883125 85.009979,115.025352 
	C84.439644,114.501602 83.869308,113.977844 83.146248,113.200409 
z"/>
<path fill="#F0F8E6" opacity="1.000000" stroke="none" 
	d="
M131.163635,54.576019 
	C130.832291,54.207478 130.500946,53.838932 130.088440,53.234726 
	C133.699951,52.981342 136.017975,54.742397 136.934296,58.704620 
	C136.951294,59.070042 136.475159,59.042015 135.994568,58.839783 
	C134.063858,57.283703 132.613754,55.929863 131.163635,54.576019 
z"/>
<path fill="#F0F8E6" opacity="1.000000" stroke="none" 
	d="
M128.850891,51.823921 
	C126.320877,51.005112 123.795990,49.815819 121.058395,48.351738 
	C124.155525,47.684757 127.066002,48.240002 128.850891,51.823921 
z"/>
<path fill="#527242" opacity="1.000000" stroke="none" 
	d="
M139.403549,140.024811 
	C140.596527,138.147278 142.102783,136.162994 143.979370,134.253311 
	C142.805405,136.191284 141.261108,138.054672 139.403549,140.024811 
z"/>
<path fill="#F0F8E6" opacity="1.000000" stroke="none" 
	d="
M141.297440,63.852741 
	C139.762939,62.421364 138.467453,61.039787 137.053757,59.355362 
	C138.631073,60.435646 140.326614,61.818779 142.022583,63.573132 
	C142.023010,63.944347 141.536469,63.902542 141.297440,63.852741 
z"/>
<path fill="#F0F8E6" opacity="1.000000" stroke="none" 
	d="
M117.935394,46.632011 
	C115.843063,46.509483 113.682983,46.029343 111.248993,45.316143 
	C113.272598,45.480190 115.570122,45.877293 117.935394,46.632011 
z"/>
<path fill="#6E8C53" opacity="1.000000" stroke="none" 
	d="
M108.732971,81.984711 
	C109.648003,83.418625 110.292862,84.864029 110.962067,86.660118 
	C109.996941,85.571106 109.007477,84.131416 107.970367,82.358551 
	C108.102753,82.015648 108.282776,82.005928 108.732971,81.984711 
z"/>
<path fill="#707070" opacity="1.000000" stroke="none" 
	d="
M84.839165,115.242920 
	C85.868301,114.883125 86.726631,114.740898 87.839722,114.543411 
	C88.315475,114.496284 88.536453,114.504417 88.601471,114.991837 
	C88.295006,115.643967 88.144493,115.816795 87.993980,115.989616 
	C86.697128,116.192215 85.400276,116.394814 83.917221,116.313156 
	C84.043465,115.839424 84.355904,115.649948 84.839165,115.242920 
z"/>
<path fill="#9DA693" opacity="1.000000" stroke="none" 
	d="
M79.216293,111.091881 
	C78.022644,111.380508 76.829002,111.669128 75.260361,111.925797 
	C76.679695,111.245407 78.474007,110.596977 80.167145,110.420349 
	C79.782753,110.958725 79.499527,111.025299 79.216293,111.091881 
z"/>
<path fill="#C3C4C4" opacity="1.000000" stroke="none" 
	d="
M91.065178,112.917236 
	C91.065178,112.917244 91.048965,112.446587 91.279526,112.096252 
	C91.762810,111.527451 91.931641,111.256630 92.016571,110.933456 
	C92.458946,110.955124 92.901314,110.976791 93.669556,110.997215 
	C93.995422,110.995979 93.980682,110.980988 94.001053,111.305237 
	C94.021591,111.846077 94.021744,112.062675 94.021904,112.279274 
	C94.021904,112.279274 94.099541,112.594276 93.718246,112.667908 
	C92.579697,112.800110 91.822433,112.858673 91.065178,112.917236 
z"/>
<path fill="#909292" opacity="1.000000" stroke="none" 
	d="
M90.720337,112.997841 
	C91.822433,112.858673 92.579697,112.800110 93.708771,112.829842 
	C92.535759,113.339294 90.990921,113.760445 88.978790,114.118332 
	C89.132820,113.729523 89.754150,113.403984 90.720337,112.997841 
z"/>
<path fill="#6E8C53" opacity="1.000000" stroke="none" 
	d="
M111.029709,87.333138 
	C111.642082,87.851387 112.296341,88.689613 112.915024,89.904457 
	C112.276840,89.405090 111.674210,88.529099 111.029709,87.333138 
z"/>
<path fill="#527242" opacity="1.000000" stroke="none" 
	d="
M144.599380,134.196594 
	C144.667786,133.591782 145.003601,132.849869 145.686768,132.060272 
	C145.645004,132.694901 145.255905,133.377182 144.599380,134.196594 
z"/>
<path fill="#C3C4C4" opacity="1.000000" stroke="none" 
	d="
M94.001656,111.005066 
	C94.776726,110.676476 95.545563,110.338806 96.945648,110.004883 
	C97.772430,110.008385 97.967979,110.008141 98.163536,110.007896 
	C98.094513,110.194695 98.025482,110.381493 97.886589,110.858978 
	C97.816719,111.149658 97.544708,111.120392 97.001068,111.058105 
	C95.631851,110.990883 94.806267,110.985931 93.980682,110.980988 
	C93.980682,110.980988 93.995422,110.995979 94.001656,111.005066 
z"/>
<path fill="#E3EEDC" opacity="1.000000" stroke="none" 
	d="
M79.302650,111.383301 
	C79.499527,111.025299 79.782753,110.958725 80.456390,110.685890 
	C80.846817,110.479630 80.912605,110.487129 81.199005,110.419464 
	C81.668793,110.340446 81.852188,110.329086 82.029938,110.497314 
	C82.024277,110.676910 82.008904,111.035942 82.008904,111.035942 
	C81.135605,111.248871 80.262306,111.461792 79.302650,111.383301 
z"/>
<path fill="#9A9B9D" opacity="1.000000" stroke="none" 
	d="
M94.001053,111.305237 
	C94.806267,110.985931 95.631851,110.990883 96.872955,111.010162 
	C96.435036,111.372269 95.581604,111.720032 94.375031,112.173538 
	C94.021744,112.062675 94.021591,111.846077 94.001053,111.305237 
z"/>
<path fill="#82A957" opacity="1.000000" stroke="none" 
	d="
M82.922440,51.379951 
	C83.469742,51.575912 84.109917,52.068390 84.834457,52.865528 
	C84.284317,52.672283 83.649811,52.174377 82.922440,51.379951 
z"/>
<path fill="#F0F8E6" opacity="1.000000" stroke="none" 
	d="
M82.352470,111.022171 
	C82.008904,111.035942 82.024277,110.676910 82.278625,110.343430 
	C82.692329,109.671204 82.851677,109.332466 83.011032,108.993729 
	C83.199516,108.996613 83.387993,108.999504 83.860168,109.017540 
	C83.661247,109.691246 83.178642,110.349823 82.352470,111.022171 
z"/>
<path fill="#6E8C53" opacity="1.000000" stroke="none" 
	d="
M102.742371,74.457275 
	C103.105316,74.582367 103.517532,75.003853 103.941025,75.748123 
	C103.565407,75.631828 103.178528,75.192749 102.742371,74.457275 
z"/>
<path fill="#9DA693" opacity="1.000000" stroke="none" 
	d="
M82.589951,108.956879 
	C82.851677,109.332466 82.692329,109.671204 82.284286,110.163834 
	C81.852188,110.329086 81.668793,110.340446 81.221222,110.430405 
	C81.360985,109.979355 81.764931,109.449692 82.589951,108.956879 
z"/>
<path fill="#6E8C53" opacity="1.000000" stroke="none" 
	d="
M104.786758,77.413452 
	C105.138092,77.552223 105.535454,77.988892 105.943253,78.746048 
	C105.580055,78.614799 105.206421,78.163078 104.786758,77.413452 
z"/>
<path fill="#DDF3C5" opacity="1.000000" stroke="none" 
	d="
M88.857399,44.547375 
	C88.587326,44.837067 88.134781,44.948753 87.332870,45.011108 
	C87.547310,44.764305 88.111122,44.566841 88.857399,44.547375 
z"/>
<path fill="#6E8C53" opacity="1.000000" stroke="none" 
	d="
M105.962921,79.279358 
	C106.316856,79.334167 106.699699,79.625038 106.866928,80.036469 
	C106.319054,80.058723 106.099220,79.844856 105.962921,79.279358 
z"/>
<path fill="#F0F8E6" opacity="1.000000" stroke="none" 
	d="
M129.879089,52.761963 
	C129.679092,52.867790 129.359268,52.742008 128.933350,52.373272 
	C129.137909,52.263660 129.448578,52.397007 129.879089,52.761963 
z"/>
<path fill="#5E7051" opacity="1.000000" stroke="none" 
	d="
M111.473709,156.094391 
	C111.425056,156.003464 111.705299,155.948196 111.776459,155.953033 
	C111.847626,155.957870 111.522362,156.185303 111.473709,156.094391 
z"/>
<path fill="#527242" opacity="1.000000" stroke="none" 
	d="
M146.086426,130.188934 
	C146.241882,130.003555 146.471130,130.025650 147.043884,130.085205 
	C147.327484,130.291794 147.267578,130.460922 147.003616,130.805603 
	C146.517197,130.861954 146.304077,130.667053 146.086426,130.188934 
z"/>
<path fill="#F0F8E6" opacity="1.000000" stroke="none" 
	d="
M119.829720,47.615013 
	C119.653625,47.746029 119.316696,47.664478 118.817490,47.367111 
	C118.993095,47.235016 119.330994,47.318726 119.829720,47.615013 
z"/>
<path fill="#82A957" opacity="1.000000" stroke="none" 
	d="
M84.923401,53.342613 
	C85.139854,53.270931 85.441696,53.460369 85.826202,53.912884 
	C85.608833,53.985214 85.308807,53.794472 84.923401,53.342613 
z"/>
<path fill="#A8A9AD" opacity="1.000000" stroke="none" 
	d="
M88.212219,116.014320 
	C88.144493,115.816795 88.295006,115.643967 88.741379,115.292572 
	C88.834984,115.422356 88.632729,115.730690 88.212219,116.014320 
z"/>
<path fill="#82A957" opacity="1.000000" stroke="none" 
	d="
M85.908340,54.356682 
	C86.128960,54.279270 86.434929,54.463947 86.825264,54.912312 
	C86.604309,54.990253 86.299004,54.804512 85.908340,54.356682 
z"/>
<path fill="#DDF3C5" opacity="1.000000" stroke="none" 
	d="
M97.196289,68.025467 
	C97.158531,67.748955 97.596329,67.785263 97.814537,67.809410 
	C98.053383,68.016823 98.074013,68.200081 98.100632,68.659790 
	C97.815765,68.724815 97.524910,68.513390 97.196289,68.025467 
z"/>
<path fill="#6E8C53" opacity="1.000000" stroke="none" 
	d="
M101.854935,73.374031 
	C102.071732,73.307892 102.387817,73.503387 102.768730,73.982559 
	C102.540436,74.056046 102.247322,73.845856 101.854935,73.374031 
z"/>
<path fill="#6E8C53" opacity="1.000000" stroke="none" 
	d="
M103.976074,76.302528 
	C104.202354,76.252037 104.478317,76.472191 104.807281,76.961044 
	C104.582100,77.010880 104.303932,76.792030 103.976074,76.302528 
z"/>
<path fill="#9B9F9E" opacity="1.000000" stroke="none" 
	d="
M117.997253,101.002052 
	C113.735718,102.972595 109.474182,104.943146 104.984711,107.019089 
	C104.984711,106.255814 104.984711,104.932274 105.120850,103.002045 
	C105.495941,101.911575 105.734886,101.427795 105.973831,100.944016 
	C105.973839,100.944016 106.004555,100.993752 106.372421,101.069626 
	C111.112282,99.366356 115.484268,97.587219 119.886971,95.849228 
	C119.917686,95.890373 119.978897,95.972847 119.936523,96.321152 
	C119.261856,98.113655 118.629547,99.557854 117.997253,101.002052 
z"/>
<path fill="#A8A9AD" opacity="1.000000" stroke="none" 
	d="
M128.000000,94.000610 
	C131.746750,91.663628 135.493484,89.326637 139.631042,87.005890 
	C140.021851,87.022125 140.067123,87.068146 140.163147,87.279427 
	C140.449432,87.753502 140.701035,87.927818 141.008362,88.008194 
	C141.002747,88.002716 140.990143,87.990700 140.990143,87.990700 
	C136.871964,90.908112 132.753799,93.825523 128.311661,96.500717 
	C127.991806,95.505867 127.995903,94.753242 128.000000,94.000610 
z"/>
<path fill="#A0A1A3" opacity="1.000000" stroke="none" 
	d="
M155.000153,72.993027 
	C155.879807,71.744125 156.759445,70.495232 158.403534,68.160995 
	C158.184464,70.127518 158.111588,70.781754 158.023926,71.724060 
	C156.507278,76.808365 153.653076,80.352821 148.382233,82.007477 
	C148.007339,82.007607 147.997055,81.996010 148.124268,81.701385 
	C148.504349,80.602409 148.757187,79.798065 149.010040,78.993713 
	C149.486862,78.731148 149.963669,78.468575 150.923218,78.002029 
	C151.698486,77.605621 151.890366,77.340370 151.981552,77.002289 
	C151.981552,77.002289 151.996094,76.996582 152.247437,76.829697 
	C152.664291,76.106224 152.829803,75.549644 152.995331,74.993065 
	C152.995331,74.993065 153.000000,75.000000 153.319809,74.961395 
	C154.093124,74.279541 154.546646,73.636284 155.000153,72.993027 
z"/>
<path fill="#A8A9AD" opacity="1.000000" stroke="none" 
	d="
M118.361832,100.997162 
	C118.629547,99.557854 119.261856,98.113655 120.301514,96.335114 
	C121.829231,95.805756 122.951042,95.483658 124.069054,95.496353 
	C124.387314,95.499977 124.694511,96.477028 125.006775,97.007690 
	C122.913330,98.335884 120.819878,99.664078 118.361832,100.997162 
z"/>
<path fill="#A8A9AD" opacity="1.000000" stroke="none" 
	d="
M139.999268,86.999054 
	C141.440582,85.731819 142.904465,84.487663 144.925934,83.281548 
	C145.666412,83.891449 145.849319,84.463303 146.032227,85.035156 
	C144.578964,86.001198 143.125717,86.967232 141.331299,87.961983 
	C140.990143,87.990700 141.002747,88.002716 140.906158,87.799370 
	C140.620911,87.337280 140.373444,87.161324 140.067123,87.068146 
	C140.067123,87.068146 140.021851,87.022125 139.999268,86.999054 
z"/>
<path fill="#9B9F9E" opacity="1.000000" stroke="none" 
	d="
M125.379051,97.007156 
	C124.694511,96.477028 124.387314,95.499977 124.069054,95.496353 
	C122.951042,95.483658 121.829231,95.805756 120.343880,95.986809 
	C119.978897,95.972847 119.917686,95.890373 120.116417,95.616714 
	C121.875229,94.557854 123.435318,93.772652 124.995399,92.987457 
	C125.770737,93.323929 126.546066,93.660393 127.660698,93.998734 
	C127.995903,94.753242 127.991806,95.505867 127.985870,96.635162 
	C127.239799,97.010094 126.495567,97.008362 125.379051,97.007156 
z"/>
<path fill="#A0A1A3" opacity="1.000000" stroke="none" 
	d="
M161.360229,67.946198 
	C160.435623,66.455772 159.868774,64.895287 159.217728,63.103058 
	C160.260925,63.399635 161.303955,63.696175 162.682037,63.997726 
	C162.584045,65.293877 162.151016,66.585014 161.360229,67.946198 
z"/>
<path fill="#9B9F9E" opacity="1.000000" stroke="none" 
	d="
M100.031334,104.195602 
	C100.007004,103.580078 100.201111,103.333748 100.979210,103.109734 
	C101.666687,103.115623 101.849075,103.161385 102.031456,103.207138 
	C102.031456,104.464073 102.031456,105.721008 102.031456,108.129456 
	C101.064606,106.244766 100.617744,105.373688 100.031334,104.195602 
z"/>
<path fill="#E3EEDC" opacity="1.000000" stroke="none" 
	d="
M102.399933,103.164352 
	C101.849075,103.161385 101.666687,103.115623 101.204613,103.032532 
	C102.368233,102.283890 103.811546,101.572586 105.614349,100.902649 
	C105.734886,101.427795 105.495941,101.911575 105.119278,102.649330 
	C104.243843,102.976059 103.506126,103.048813 102.399933,103.164352 
z"/>
<path fill="#A0A1A3" opacity="1.000000" stroke="none" 
	d="
M146.371414,84.969757 
	C145.849319,84.463303 145.666412,83.891449 145.236969,83.138367 
	C145.093781,82.648659 145.276199,82.397682 146.088608,82.102966 
	C147.092026,81.999832 147.544540,81.997925 147.997055,81.996010 
	C147.997055,81.996010 148.007339,82.007607 148.015793,82.015808 
	C147.586365,82.984131 147.148483,83.944244 146.371414,84.969757 
z"/>
<path fill="#A8A9AD" opacity="1.000000" stroke="none" 
	d="
M98.426292,109.986221 
	C97.967979,110.008141 97.772430,110.008385 97.283714,109.995834 
	C96.991920,109.797211 96.993294,109.611374 97.012619,109.145767 
	C97.583382,109.232178 98.136215,109.598358 98.426292,109.986221 
z"/>
<path fill="#A0A1A3" opacity="1.000000" stroke="none" 
	d="
M146.533386,48.551964 
	C146.474075,48.588013 146.592697,48.515919 146.533386,48.551964 
z"/>
<path fill="#7AAC41" opacity="1.000000" stroke="none" 
	d="
M131.003967,54.882492 
	C132.613754,55.929863 134.063858,57.283703 135.757263,58.863419 
	C135.506836,59.935490 135.014069,61.512302 134.519211,61.512951 
	C130.351685,61.518425 126.185600,61.144958 122.015564,61.061905 
	C116.671249,60.955460 111.305252,61.262512 105.987068,60.870121 
	C104.012436,60.724430 102.146561,59.104649 99.874542,57.933521 
	C101.227615,55.991844 102.937233,54.273743 104.753571,52.249214 
	C104.860291,51.942780 105.251984,51.841339 105.450150,51.803520 
	C111.919655,52.407303 118.199356,52.979031 124.457733,53.728844 
	C126.613953,53.987179 128.716980,54.689472 131.003967,54.882492 
z"/>
<path fill="#E3EEDC" opacity="1.000000" stroke="none" 
	d="
M125.193283,92.729614 
	C123.435318,93.772652 121.875229,94.557854 120.085701,95.575562 
	C115.484268,97.587219 111.112282,99.366356 106.346977,101.055351 
	C111.134285,98.142937 116.314903,95.320671 121.699020,92.230179 
	C121.902512,91.961952 121.962723,91.996056 122.249527,91.937012 
	C122.797722,91.625885 123.059120,91.373795 123.320511,91.121696 
	C124.792076,90.352409 126.263649,89.583122 128.031769,88.763260 
	C128.662094,88.794716 128.995895,88.876732 129.832092,89.082657 
	C128.686722,90.294968 127.038940,91.383369 125.193283,92.729614 
z"/>
<path fill="#6E8C53" opacity="1.000000" stroke="none" 
	d="
M123.048431,91.162430 
	C123.059120,91.373795 122.797722,91.625885 122.258377,91.903687 
	C122.245743,91.687325 122.511047,91.445244 123.048431,91.162430 
z"/>
<path fill="#A8A9AD" opacity="1.000000" stroke="none" 
	d="
M148.124268,81.701385 
	C147.544540,81.997925 147.092026,81.999832 146.299332,81.996696 
	C146.788193,81.080673 147.617249,80.169693 148.728165,79.126213 
	C148.757187,79.798065 148.504349,80.602409 148.124268,81.701385 
z"/>
<path fill="#A8A9AD" opacity="1.000000" stroke="none" 
	d="
M154.732193,73.111588 
	C154.546646,73.636284 154.093124,74.279541 153.316101,74.959129 
	C153.483139,74.407021 153.973679,73.818581 154.732193,73.111588 
z"/>
<path fill="#A0A1A3" opacity="1.000000" stroke="none" 
	d="
M155.356140,57.259781 
	C155.370773,57.007935 155.505676,56.870598 155.640579,56.733253 
	C155.585846,56.946930 155.531128,57.160606 155.356140,57.259781 
z"/>
<path fill="#A0A1A3" opacity="1.000000" stroke="none" 
	d="
M157.602493,67.275436 
	C157.443451,67.149292 157.420563,66.931190 157.397675,66.713097 
	C157.511337,66.869896 157.624985,67.026688 157.602493,67.275436 
z"/>
<path fill="#A8A9AD" opacity="1.000000" stroke="none" 
	d="
M152.750305,75.159363 
	C152.829803,75.549644 152.664291,76.106224 152.247925,76.821899 
	C152.166489,76.429214 152.335892,75.877441 152.750305,75.159363 
z"/>
<path fill="#A8A9AD" opacity="1.000000" stroke="none" 
	d="
M151.755920,77.103149 
	C151.890366,77.340370 151.698486,77.605621 151.172913,77.891747 
	C151.059937,77.666962 151.256729,77.406479 151.755920,77.103149 
z"/>
<path fill="#BBC0BD" opacity="1.000000" stroke="none" 
	d="
M72.112183,115.293602 
	C72.403763,115.210617 72.794067,115.303062 72.874084,115.513489 
	C72.941330,115.690323 72.647209,116.004570 72.513069,116.257980 
	C72.367538,116.012039 72.222000,115.766098 72.112183,115.293602 
z"/>
<path fill="#82A957" opacity="1.000000" stroke="none" 
	d="
M95.571434,57.004513 
	C95.431946,57.356373 94.978844,57.755581 94.214508,58.219288 
	C94.354797,57.873146 94.806313,57.462502 95.571434,57.004513 
z"/>
<path fill="#82A957" opacity="1.000000" stroke="none" 
	d="
M101.783051,51.102272 
	C102.004448,51.000950 101.944260,51.481030 101.869255,51.711018 
	C101.794250,51.941006 101.391617,51.942558 101.190918,51.958828 
	C101.094406,51.654003 101.284882,51.396835 101.783051,51.102272 
z"/>
<path fill="#82A957" opacity="1.000000" stroke="none" 
	d="
M99.831825,53.116646 
	C99.877960,53.293896 99.682693,53.573711 99.250473,53.962799 
	C99.205818,53.787785 99.398125,53.503494 99.831825,53.116646 
z"/>
<path fill="#BBC0BD" opacity="1.000000" stroke="none" 
	d="
M91.827606,110.687996 
	C91.931641,111.256630 91.762810,111.527451 91.300179,111.861694 
	C90.498726,111.808266 89.907173,111.639061 89.122574,111.219833 
	C89.832573,110.794052 90.735603,110.618294 91.827606,110.687996 
z"/>
<path fill="#909292" opacity="1.000000" stroke="none" 
	d="
M140.163147,87.279427 
	C140.373444,87.161324 140.620911,87.337280 140.911774,87.804840 
	C140.701035,87.927818 140.449432,87.753502 140.163147,87.279427 
z"/>
</svg>