<svg version="1.1" id="Layer_1" xmlns="http://www.w3.org/2000/svg" xmlns:xlink="http://www.w3.org/1999/xlink" x="0px" y="0px"
	 width="100%" viewBox="0 0 200 200" enable-background="new 0 0 200 200" xml:space="preserve">
<path fill="#FEFEFE" opacity="1.000000" stroke="none" 
	d="
M117.000000,201.000000 
	C78.024071,201.000000 39.548149,201.000000 1.036112,201.000000 
	C1.036112,134.399109 1.036112,67.798203 1.036112,1.098643 
	C67.559090,1.098643 134.118378,1.098643 200.838837,1.098643 
	C200.838837,67.666351 200.838837,134.333145 200.838837,201.000000 
	C173.131821,201.000000 145.315903,201.000000 117.000000,201.000000 
M91.063881,64.006149 
	C91.063881,64.006149 91.358116,63.647141 91.187805,64.388878 
	C92.528229,67.172241 94.150566,68.997742 97.916435,66.065697 
	C99.833908,66.508217 101.751373,66.950737 103.903015,67.447296 
	C101.899849,69.227112 100.438660,70.525375 98.572212,72.042206 
	C98.572212,72.042206 98.111923,72.053490 97.404419,71.931229 
	C93.359116,70.870438 90.831078,72.766357 88.958862,76.602959 
	C88.827019,76.875595 88.616783,77.057770 87.547188,77.113121 
	C82.774124,78.240578 83.269478,82.851791 83.576904,85.568481 
	C83.803192,87.568130 87.772202,89.144257 90.788437,91.032158 
	C93.504349,92.603485 96.220261,94.174812 98.215736,95.967964 
	C96.246933,96.777397 94.262955,97.552040 92.312157,98.402763 
	C86.366013,100.995804 84.766418,106.099419 88.326683,112.719841 
	C90.363747,114.033325 92.463226,115.261505 94.415886,116.690331 
	C95.713280,117.639694 96.800812,118.875854 97.386620,120.397743 
	C95.235130,121.264313 93.014832,121.992859 90.945648,123.024498 
	C85.690170,125.644768 84.443825,130.380997 87.810913,136.504318 
	C95.814140,133.268631 104.085281,130.351715 111.948738,126.583954 
	C116.605980,124.352448 116.980225,119.564316 113.705795,113.447853 
	C110.470612,111.628098 107.235420,109.808334 104.498398,107.435837 
	C109.213676,106.298180 113.938065,105.308891 116.821510,100.677856 
	C119.184547,96.882652 118.345215,91.694183 114.234100,90.142006 
	C113.832947,90.162605 113.431786,90.183205 112.972534,89.496994 
	C111.292374,88.015282 109.612221,86.533569 108.249115,84.428322 
	C111.165421,81.950134 114.081734,79.471947 117.265587,77.375565 
	C118.176956,77.583809 119.088326,77.792061 120.069740,78.568764 
	C120.374802,78.891075 120.679863,79.213387 120.984917,79.535698 
	C121.166573,79.326141 121.348228,79.116592 121.529892,78.907043 
	C121.020035,78.604591 120.510170,78.302139 120.011147,77.244690 
	C121.773125,71.166489 122.593987,70.855087 127.462784,74.417854 
	C131.314026,77.236023 135.216278,77.080338 138.671738,73.998650 
	C139.116531,73.999001 139.561310,73.999352 140.724960,73.926933 
	C143.421066,72.683105 149.102631,75.829224 147.990784,68.132141 
	C148.005844,66.422623 148.020905,64.713097 148.729721,63.071880 
	C150.197815,62.628330 152.251572,62.651951 153.038666,61.665192 
	C158.035034,55.401321 156.556473,48.718758 148.906418,41.261044 
	C146.789734,39.308918 148.054123,34.182186 142.488358,34.768906 
	C141.989304,34.513851 141.490265,34.258797 140.913513,33.361923 
	C140.273056,32.919933 139.632614,32.477947 138.320099,32.087791 
	C136.000320,32.982468 134.392227,34.213448 135.921982,37.623558 
	C135.269333,38.087471 134.616699,38.551384 133.422195,38.757175 
	C132.615265,38.171879 131.808334,37.586582 130.856186,36.260056 
	C127.846191,34.386467 124.757980,33.162586 121.890778,34.468632 
	C122.315369,37.347477 122.658333,39.672882 122.323601,41.707043 
	C120.883621,41.472042 119.443642,41.237038 117.195648,41.000801 
	C114.797287,41.656677 112.398933,42.312553 109.384209,43.007870 
	C109.181465,43.043365 108.978722,43.078857 108.360336,43.095634 
	C108.360336,43.095634 108.016243,42.861706 107.820580,42.121746 
	C104.884537,42.026234 101.948494,41.930725 98.378998,42.034912 
	C97.938843,42.078266 97.498680,42.121620 96.673676,41.606857 
	C94.129440,41.370361 91.926888,41.607193 91.999901,45.000763 
	C91.999901,45.000763 91.985176,44.991943 91.242310,44.994583 
	C87.949417,46.823872 85.770309,49.073338 88.313972,53.779438 
	C88.291710,54.983593 88.269447,56.187748 88.094810,58.292053 
	C88.287453,60.619370 86.878128,63.920815 91.063881,64.006149 
M74.430367,68.777534 
	C74.702118,68.578842 74.887955,68.318756 75.723251,67.989883 
	C77.148613,66.995186 78.573975,66.000488 80.577118,64.471985 
	C80.631714,62.555355 80.795334,60.634315 80.718086,58.723015 
	C80.560371,54.820660 80.273048,50.923550 80.614899,46.943611 
	C80.743164,46.295830 80.871429,45.648045 81.009369,44.332726 
	C81.012505,43.887669 81.015648,43.442608 81.485756,42.558582 
	C78.655403,40.041271 75.825050,37.523960 72.999870,35.000256 
	C72.999870,35.000256 72.994820,35.005085 72.823067,34.665947 
	C72.548828,34.777092 72.274582,34.888241 71.336037,35.006367 
	C70.893158,35.007542 70.450272,35.008713 69.897667,34.728294 
	C69.811302,34.677662 69.724930,34.627033 69.638565,34.576401 
	C69.762337,34.720028 69.886116,34.863655 70.007874,35.710075 
	C69.339386,37.141613 68.670898,38.573147 67.449753,39.606197 
	C65.768898,36.858742 64.088051,34.111286 62.404621,31.361813 
	C54.860260,33.907696 50.699829,39.816086 49.415283,47.014072 
	C48.180790,53.931580 49.997089,60.983097 53.677860,67.094673 
	C55.751759,70.538185 58.796310,73.397110 61.403599,76.519379 
	C62.130291,76.167229 62.856979,75.815071 63.583672,75.462914 
	C62.271484,69.577408 60.959301,63.691895 59.510139,57.192001 
	C59.253620,57.065426 58.149925,56.520828 56.906689,55.907375 
	C58.513443,52.586292 56.626953,47.132473 63.330353,48.711704 
	C64.033920,51.175587 64.737488,53.639465 65.513466,56.762974 
	C65.580429,57.421314 65.647385,58.079651 65.049484,59.008690 
	C65.640335,59.688221 66.231194,60.367756 67.150665,61.604149 
	C67.433220,62.407131 67.715782,63.210117 68.124390,64.395515 
	C68.250160,64.642120 68.436516,64.827972 68.963989,65.381721 
	C69.013000,65.545311 69.062012,65.708900 68.408958,66.045364 
	C65.658752,68.493874 67.837784,70.021851 69.630554,71.183723 
	C71.982208,72.707802 73.599800,71.842323 74.430367,68.777534 
M139.248749,180.279968 
	C140.571976,180.826050 142.389801,182.190582 143.117340,181.750931 
	C144.721375,180.781601 146.671692,179.015457 146.878754,177.372543 
	C147.406097,173.188736 147.054245,168.894104 147.054245,164.544952 
	C145.542053,164.393600 144.422180,164.281525 142.535645,164.053421 
	C141.464386,163.458389 139.498779,162.916183 139.460037,162.260147 
	C139.066147,155.591125 134.679184,158.204147 131.385712,158.725128 
	C128.350876,159.205215 128.056564,160.816620 130.277313,162.875046 
	C130.863495,163.418381 131.547150,163.856522 131.669159,164.853577 
	C126.707085,166.453522 127.525970,170.241379 128.837631,173.599030 
	C130.605728,178.125092 134.189346,177.686203 138.484299,176.428329 
	C138.764694,177.458755 139.045074,178.489197 139.248749,180.279968 
M114.087463,167.433563 
	C114.087463,164.795944 114.087463,162.158340 114.087463,159.243057 
	C112.593719,159.243057 111.398422,159.243057 109.666946,159.243057 
	C109.666946,164.193390 109.666946,168.926727 109.666946,173.795792 
	C107.832420,173.795792 106.532623,173.795792 105.232826,173.795792 
	C105.513199,173.379105 105.793571,172.962418 106.073936,172.545731 
	C103.729149,170.728912 101.372581,167.477020 99.042854,167.496140 
	C96.680946,167.515533 94.345573,170.766815 91.998581,172.602585 
	C92.216339,173.000168 92.434105,173.397736 92.651863,173.795319 
	C87.674240,174.810547 89.173103,170.917068 89.062363,168.520676 
	C88.857971,164.097778 88.968529,164.092667 84.720474,165.152893 
	C84.720474,167.882980 84.720474,170.685715 84.720474,173.641693 
	C82.378502,173.641693 80.317039,173.641693 77.982903,173.641693 
	C77.982903,170.700638 77.982903,168.071045 77.982903,165.532883 
	C71.896935,163.592361 67.173180,165.042892 66.015137,169.035172 
	C64.851334,173.047302 67.259132,176.165710 72.024651,177.338913 
	C70.741844,178.093399 69.088493,179.065796 67.435143,180.038208 
	C67.743919,180.793045 68.052704,181.547882 68.361488,182.302719 
	C71.146805,181.624649 74.581345,181.740250 76.582390,180.103409 
	C80.757683,176.687988 90.273796,174.826080 94.715080,178.008713 
	C97.773987,180.200729 100.280731,180.507828 103.215553,178.102936 
	C104.019333,177.444305 105.252449,177.103149 106.322945,177.009476 
	C114.095428,176.329254 114.098213,176.361084 114.087463,167.433563 
M62.555813,164.313187 
	C61.757057,165.420639 60.551983,166.428635 60.251087,167.657944 
	C59.751427,169.699295 59.832691,171.882843 59.669266,174.006485 
	C59.039478,173.993332 58.409691,173.980179 57.779903,173.967026 
	C57.779903,171.802032 57.698021,169.633255 57.798023,167.472885 
	C57.972385,163.705978 56.000904,163.909485 53.486485,164.802826 
	C53.185898,168.028931 52.905201,171.041565 52.624504,174.054199 
	C52.087616,174.014877 51.550732,173.975540 51.013847,173.936218 
	C51.013847,170.888855 51.013847,167.841492 51.013847,164.561203 
	C49.333702,164.561203 47.314648,164.372894 47.270191,164.589615 
	C46.659859,167.565109 46.321762,170.596436 45.910816,173.658630 
	C44.176044,173.658630 42.594685,173.658630 41.011784,173.658630 
	C41.151554,164.385529 38.681210,162.666931 30.164173,166.072144 
	C30.057915,164.087906 29.955545,162.176239 29.854895,160.296692 
	C26.084768,160.177231 26.084768,160.177231 25.590979,172.985886 
	C24.279169,173.961212 22.994064,174.916672 21.708960,175.872131 
	C34.952820,176.870193 47.742798,176.965759 60.525871,176.712753 
	C61.718960,176.689133 63.704784,174.561813 63.866131,173.234238 
	C64.215263,170.361588 63.619366,167.374084 62.555813,164.313187 
M159.747238,176.937668 
	C161.664795,176.900223 163.582443,176.827026 165.499878,176.832748 
	C169.482834,176.844666 173.484604,177.155441 177.443390,176.864258 
	C181.576462,176.560226 183.037628,173.527725 182.752716,169.824951 
	C182.496964,166.501160 180.627960,164.153503 177.007080,164.173187 
	C173.083466,164.194504 171.530792,166.799011 171.226059,170.331406 
	C171.130661,171.437225 171.355530,172.570694 171.427277,173.598358 
	C169.497223,173.598358 167.750885,173.598358 166.056137,173.598358 
	C164.780975,164.140396 164.780975,164.140396 161.019623,165.192291 
	C161.019623,167.886185 161.019623,170.664108 161.019623,173.664337 
	C158.989441,173.664337 157.255295,173.664337 155.055145,173.664337 
	C155.055145,168.670319 155.055145,163.942337 155.055145,158.911011 
	C153.350952,159.073792 152.140656,159.189407 151.002121,159.298172 
	C150.925583,159.991409 150.859222,160.320587 150.857574,160.650101 
	C150.843430,163.473770 150.835098,166.297501 150.836227,169.121216 
	C150.839188,176.481354 151.231735,176.867111 159.747238,176.937668 
M117.601273,165.642639 
	C117.601273,169.284805 117.601273,172.926956 117.601273,176.669617 
	C119.172272,176.669617 120.395332,176.669617 121.665672,176.669617 
	C121.665672,170.639648 121.665672,164.893448 121.665672,158.889053 
	C120.150818,159.053833 118.937920,159.185760 117.601120,159.331161 
	C117.601120,161.400681 117.601120,163.055237 117.601273,165.642639 
M52.150547,75.543434 
	C52.968082,75.771561 53.785618,75.999680 54.603153,76.227798 
	C54.530308,75.344505 54.457462,74.461205 54.384617,73.577911 
	C53.663483,73.997055 52.942348,74.416199 52.150547,75.543434 
z"/>
<path fill="#2B2B2B" opacity="1.000000" stroke="none" 
	d="
M114.087265,167.908203 
	C114.098213,176.361084 114.095428,176.329254 106.322945,177.009476 
	C105.252449,177.103149 104.019333,177.444305 103.215553,178.102936 
	C100.280731,180.507828 97.773987,180.200729 94.715080,178.008713 
	C90.273796,174.826080 80.757683,176.687988 76.582390,180.103409 
	C74.581345,181.740250 71.146805,181.624649 68.361488,182.302719 
	C68.052704,181.547882 67.743919,180.793045 67.435143,180.038208 
	C69.088493,179.065796 70.741844,178.093399 72.024651,177.338913 
	C67.259132,176.165710 64.851334,173.047302 66.015137,169.035172 
	C67.173180,165.042892 71.896935,163.592361 77.982903,165.532883 
	C77.982903,168.071045 77.982903,170.700638 77.982903,173.641693 
	C80.317039,173.641693 82.378502,173.641693 84.720474,173.641693 
	C84.720474,170.685715 84.720474,167.882980 84.720474,165.152893 
	C88.968529,164.092667 88.857971,164.097778 89.062363,168.520676 
	C89.173103,170.917068 87.674240,174.810547 92.651863,173.795319 
	C92.434105,173.397736 92.216339,173.000168 91.998581,172.602585 
	C94.345573,170.766815 96.680946,167.515533 99.042854,167.496140 
	C101.372581,167.477020 103.729149,170.728912 106.073936,172.545731 
	C105.793571,172.962418 105.513199,173.379105 105.232826,173.795792 
	C106.532623,173.795792 107.832420,173.795792 109.666946,173.795792 
	C109.666946,168.926727 109.666946,164.193390 109.666946,159.243057 
	C111.398422,159.243057 112.593719,159.243057 114.087463,159.243057 
	C114.087463,162.158340 114.087463,164.795944 114.087265,167.908203 
z"/>
<path fill="#303030" opacity="1.000000" stroke="none" 
	d="
M62.982903,164.373367 
	C63.619366,167.374084 64.215263,170.361588 63.866131,173.234238 
	C63.704784,174.561813 61.718960,176.689133 60.525871,176.712753 
	C47.742798,176.965759 34.952820,176.870193 21.708960,175.872131 
	C22.994064,174.916672 24.279169,173.961212 25.590979,172.985886 
	C26.084768,160.177231 26.084768,160.177231 29.854895,160.296692 
	C29.955545,162.176239 30.057915,164.087906 30.164173,166.072144 
	C38.681210,162.666931 41.151554,164.385529 41.011784,173.658630 
	C42.594685,173.658630 44.176044,173.658630 45.910816,173.658630 
	C46.321762,170.596436 46.659859,167.565109 47.270191,164.589615 
	C47.314648,164.372894 49.333702,164.561203 51.013847,164.561203 
	C51.013847,167.841492 51.013847,170.888855 51.013847,173.936218 
	C51.550732,173.975540 52.087616,174.014877 52.624504,174.054199 
	C52.905201,171.041565 53.185898,168.028931 53.486485,164.802826 
	C56.000904,163.909485 57.972385,163.705978 57.798023,167.472885 
	C57.698021,169.633255 57.779903,171.802032 57.779903,173.967026 
	C58.409691,173.980179 59.039478,173.993332 59.669266,174.006485 
	C59.832691,171.882843 59.751427,169.699295 60.251087,167.657944 
	C60.551983,166.428635 61.757057,165.420639 62.982903,164.373367 
M36.894901,171.368347 
	C36.212460,169.922363 35.530022,168.476364 34.847584,167.030380 
	C32.710976,168.939590 30.574371,170.848816 28.437765,172.758026 
	C28.820654,173.386993 29.203543,174.015945 29.586433,174.644913 
	C31.953199,173.815872 34.319965,172.986847 36.894901,171.368347 
z"/>
<path fill="#FDFDFC" opacity="1.000000" stroke="none" 
	d="
M119.999695,78.000305 
	C119.088326,77.792061 118.176956,77.583809 117.139870,76.798279 
	C117.046768,75.890511 117.014801,75.537384 117.121490,75.232849 
	C119.564125,68.260635 119.545021,68.294212 113.462906,64.204620 
	C112.983437,63.882229 113.102043,62.670357 112.974686,61.629917 
	C113.006676,61.387966 113.279480,60.983204 113.469223,60.833946 
	C113.871887,60.415756 113.953117,60.111622 113.930222,59.369884 
	C116.956528,53.443184 114.090569,49.134346 110.923935,44.658302 
	C110.605553,44.196442 110.339386,44.043583 110.007477,43.997108 
	C110.000610,44.000977 110.006927,43.988377 110.009995,43.733360 
	C110.008896,43.308380 110.004730,43.138409 110.000572,42.968430 
	C112.398933,42.312553 114.797287,41.656677 117.598816,41.417854 
	C118.262794,43.600609 117.885345,46.236610 118.896980,46.978516 
	C122.875412,49.896191 121.891830,53.296936 121.093925,57.135521 
	C119.652367,64.070580 119.822495,64.100189 126.667999,64.200790 
	C126.946510,64.204880 127.220566,64.511833 127.496696,64.677689 
	C127.283539,64.841415 127.070389,65.005150 126.857231,65.168877 
	C128.304199,66.915771 129.751160,68.662666 131.198135,70.409569 
	C131.640335,70.177826 132.082535,69.946091 132.524734,69.714355 
	C132.678955,68.474937 132.833176,67.235519 133.271576,65.859344 
	C134.363052,64.144142 135.170395,62.565701 136.348312,60.992233 
	C138.156296,61.668911 139.593719,62.340611 141.056763,63.352852 
	C141.362961,64.783981 141.643509,65.874573 141.578308,66.977905 
	C140.484894,67.994492 139.737228,68.998337 138.986755,70.334656 
	C138.985336,71.110405 138.986710,71.553673 138.745239,72.165649 
	C138.336548,72.888649 138.170715,73.442955 138.004883,73.997253 
	C135.216278,77.080338 131.314026,77.236023 127.462784,74.417854 
	C122.593987,70.855087 121.773125,71.166489 120.005569,77.622345 
	C120.000000,78.000000 119.999695,78.000305 119.999695,78.000305 
z"/>
<path fill="#FCF7F1" opacity="1.000000" stroke="none" 
	d="
M63.031281,47.978210 
	C56.626953,47.132473 58.513443,52.586292 56.906689,55.907375 
	C58.149925,56.520828 59.253620,57.065426 59.510139,57.192001 
	C60.959301,63.691895 62.271484,69.577408 63.583672,75.462914 
	C62.856979,75.815071 62.130291,76.167229 61.403599,76.519379 
	C58.796310,73.397110 55.751759,70.538185 53.677860,67.094673 
	C49.997089,60.983097 48.180790,53.931580 49.415283,47.014072 
	C50.699829,39.816086 54.860260,33.907696 62.405910,31.362820 
	C64.088051,34.111286 65.768898,36.858742 67.581055,40.137672 
	C67.505867,41.844219 67.299393,43.019295 67.066681,44.507488 
	C66.933357,45.225136 66.826263,45.629662 66.550308,46.164722 
	C66.181099,46.516579 66.074013,46.776382 66.074646,47.047184 
	C66.089104,47.019703 66.095963,47.081608 65.752007,47.054993 
	C64.615791,47.344994 63.823536,47.661602 63.031281,47.978210 
M55.955894,40.399403 
	C51.043819,48.704334 51.401573,61.229984 56.813408,66.704079 
	C56.218830,61.658428 55.256584,56.737076 55.180973,51.802135 
	C55.122768,48.003288 56.179455,44.187363 55.955894,40.399403 
z"/>
<path fill="#E03D42" opacity="1.000000" stroke="none" 
	d="
M114.017616,114.085449 
	C116.980225,119.564316 116.605980,124.352448 111.948738,126.583954 
	C104.085281,130.351715 95.814140,133.268631 87.810913,136.504318 
	C84.443825,130.380997 85.690170,125.644768 90.945648,123.024498 
	C93.014832,121.992859 95.235130,121.264313 98.058250,120.205032 
	C103.825790,118.036697 108.921700,116.061073 114.017616,114.085449 
z"/>
<path fill="#E13D42" opacity="1.000000" stroke="none" 
	d="
M113.030632,90.203804 
	C113.431786,90.183205 113.832947,90.162605 114.643143,90.505180 
	C117.426933,97.411659 115.724373,101.404678 109.448624,103.977562 
	C105.329369,105.666344 101.203712,107.339462 96.705551,109.019386 
	C93.545547,110.061935 90.760910,111.104698 87.976273,112.147461 
	C84.766418,106.099419 86.366013,100.995804 92.312157,98.402763 
	C94.262955,97.552040 96.246933,96.777397 98.940338,95.857620 
	C104.120178,93.899452 108.575401,92.051628 113.030632,90.203804 
z"/>
<path fill="#323232" opacity="1.000000" stroke="none" 
	d="
M159.271729,176.963898 
	C151.231735,176.867111 150.839188,176.481354 150.836227,169.121216 
	C150.835098,166.297501 150.843430,163.473770 150.857574,160.650101 
	C150.859222,160.320587 150.925583,159.991409 151.002121,159.298172 
	C152.140656,159.189407 153.350952,159.073792 155.055145,158.911011 
	C155.055145,163.942337 155.055145,168.670319 155.055145,173.664337 
	C157.255295,173.664337 158.989441,173.664337 161.019623,173.664337 
	C161.019623,170.664108 161.019623,167.886185 161.019623,165.192291 
	C164.780975,164.140396 164.780975,164.140396 166.056137,173.598358 
	C167.750885,173.598358 169.497223,173.598358 171.427277,173.598358 
	C171.355530,172.570694 171.130661,171.437225 171.226059,170.331406 
	C171.530792,166.799011 173.083466,164.194504 177.007080,164.173187 
	C180.627960,164.153503 182.496964,166.501160 182.752716,169.824951 
	C183.037628,173.527725 181.576462,176.560226 177.443390,176.864258 
	C173.484604,177.155441 169.482834,176.844666 165.499878,176.832748 
	C163.582443,176.827026 161.664795,176.900223 159.271729,176.963898 
z"/>
<path fill="#E13D42" opacity="1.000000" stroke="none" 
	d="
M98.111923,72.053490 
	C98.111923,72.053490 98.572212,72.042206 99.146103,71.947449 
	C104.756973,69.977257 109.793953,68.101822 114.788589,66.242149 
	C117.692230,73.078117 115.966248,77.499710 109.894585,79.986923 
	C107.290718,81.053574 104.673828,82.088425 101.696060,83.153358 
	C97.533737,84.733826 93.738213,86.298660 89.544586,87.858109 
	C84.272118,84.636810 87.119225,80.830521 88.328148,77.149483 
	C88.616783,77.057770 88.827019,76.875595 89.378571,76.321991 
	C92.569489,74.711845 95.340706,73.382668 98.111923,72.053490 
z"/>
<path fill="#F9ECEA" opacity="1.000000" stroke="none" 
	d="
M102.062851,83.137718 
	C104.673828,82.088425 107.290718,81.053574 109.894585,79.986923 
	C115.966248,77.499710 117.692230,73.078117 114.788589,66.242149 
	C109.793953,68.101822 104.756973,69.977257 99.348724,71.838165 
	C100.438660,70.525375 101.899849,69.227112 103.903015,67.447296 
	C101.751373,66.950737 99.833908,66.508217 97.458580,66.024940 
	C97.000725,65.984184 96.858643,65.821777 97.052673,65.568069 
	C99.920677,62.826317 98.564774,61.222584 95.937408,59.617462 
	C95.244698,58.898689 94.667152,58.435040 94.030434,57.655224 
	C93.717140,57.008228 93.463028,56.677399 93.234833,56.281158 
	C93.260750,56.215752 93.233429,56.077724 93.268387,55.714520 
	C93.632759,53.937737 93.962181,52.524162 94.489540,51.024147 
	C94.921089,50.740067 95.048836,50.488628 95.383484,50.096630 
	C96.824944,49.416599 97.953636,48.823341 99.485748,48.249947 
	C101.234253,48.251877 102.579346,48.233940 104.133224,48.414047 
	C104.900764,48.709309 105.459518,48.806530 106.163177,49.018379 
	C106.308090,49.133015 106.677071,49.153343 106.871994,49.445889 
	C110.942047,54.470657 110.682899,56.119133 106.130287,60.431019 
	C105.086807,61.419319 104.929192,63.342945 104.363892,64.836121 
	C105.986549,64.900978 107.759956,65.402054 109.189461,64.908020 
	C110.619507,64.413811 111.705750,62.924809 112.942696,61.871864 
	C113.102043,62.670357 112.983437,63.882229 113.462906,64.204620 
	C119.545021,68.294212 119.564125,68.260635 117.121490,75.232849 
	C117.014801,75.537384 117.046768,75.890511 117.006096,76.607376 
	C114.081734,79.471947 111.165421,81.950134 107.732254,84.723854 
	C105.497871,84.392166 103.780365,83.764938 102.062851,83.137718 
z"/>
<path fill="#FCF7EC" opacity="1.000000" stroke="none" 
	d="
M132.987396,65.996101 
	C132.833176,67.235519 132.678955,68.474937 132.524734,69.714355 
	C132.082535,69.946091 131.640335,70.177826 131.198135,70.409569 
	C129.751160,68.662666 128.304199,66.915771 126.857231,65.168877 
	C127.070389,65.005150 127.283539,64.841415 127.496696,64.677689 
	C127.220566,64.511833 126.946510,64.204880 126.667999,64.200790 
	C119.822495,64.100189 119.652367,64.070580 121.093925,57.135521 
	C121.891830,53.296936 122.875412,49.896191 118.896980,46.978516 
	C117.885345,46.236610 118.262794,43.600609 118.002823,41.418468 
	C119.443642,41.237038 120.883621,41.472042 122.865860,42.109589 
	C124.606812,41.674442 125.805504,40.836746 127.262726,40.176079 
	C128.336395,41.574089 129.151535,42.795071 129.601746,44.011757 
	C128.382050,44.288788 126.766701,44.648117 126.786346,44.839760 
	C127.093803,47.837624 127.612312,50.813843 128.288605,55.104687 
	C130.165085,52.942440 130.879654,52.119045 131.830460,51.579700 
	C131.366180,56.244461 130.665649,60.625172 129.734192,65.194321 
	C130.664627,65.587204 131.826019,65.791649 132.987396,65.996101 
M127.190674,60.898197 
	C130.402588,60.705063 130.473068,60.533962 128.553406,55.221806 
	C127.849800,57.527748 127.445641,58.852322 127.190674,60.898197 
z"/>
<path fill="#924445" opacity="1.000000" stroke="none" 
	d="
M112.974686,61.629913 
	C111.705750,62.924809 110.619507,64.413811 109.189461,64.908020 
	C107.759956,65.402054 105.986549,64.900978 104.363892,64.836121 
	C104.929192,63.342945 105.086807,61.419319 106.130287,60.431019 
	C110.682899,56.119133 110.942047,54.470657 107.230835,49.420845 
	C108.674614,49.620430 109.954468,50.137600 111.546799,50.781040 
	C109.325165,44.801670 105.137451,43.587585 99.683136,43.887817 
	C95.139824,44.137905 93.268021,47.002186 90.939270,50.533379 
	C92.409119,50.786457 93.350357,50.948521 94.291595,51.110584 
	C93.962181,52.524162 93.632759,53.937737 92.972786,55.522198 
	C92.237320,54.688637 91.832413,53.684189 91.427505,52.679745 
	C90.975731,52.754948 90.523964,52.830147 90.072189,52.905350 
	C90.413063,54.745483 90.670441,56.606194 91.117538,58.420147 
	C91.594902,60.356884 92.251404,62.249474 92.572891,64.107689 
	C91.996750,63.918404 91.677437,63.782772 91.358116,63.647141 
	C91.358116,63.647141 91.063881,64.006149 91.095993,63.506470 
	C90.167809,61.135162 89.207497,59.263531 88.247185,57.391903 
	C88.269447,56.187748 88.291710,54.983593 88.459099,53.138592 
	C89.731209,49.995811 90.858192,47.493877 91.985176,44.991943 
	C91.985176,44.991943 91.999901,45.000763 92.312302,44.898880 
	C94.102654,43.919659 95.580589,43.042316 97.058525,42.164970 
	C97.498680,42.121620 97.938843,42.078266 99.116280,42.000061 
	C102.574455,42.264042 105.295349,42.562874 108.016243,42.861706 
	C108.016243,42.861706 108.360336,43.095634 108.695267,43.343834 
	C109.355782,43.724148 109.681351,43.856262 110.006927,43.988377 
	C110.006927,43.988377 110.000610,44.000977 110.083084,44.235085 
	C110.375038,44.777653 110.664864,44.909519 111.035034,44.864796 
	C114.090569,49.134346 116.956528,53.443184 113.731430,59.513420 
	C113.276886,60.329960 113.201683,60.637905 113.279480,60.983204 
	C113.279480,60.983204 113.006676,61.387966 112.974686,61.629913 
z"/>
<path fill="#E4D8D8" opacity="1.000000" stroke="none" 
	d="
M101.696060,83.153358 
	C103.780365,83.764938 105.497871,84.392166 107.573730,85.035614 
	C109.612221,86.533569 111.292374,88.015282 113.001587,89.850403 
	C108.575401,92.051628 104.120178,93.899452 99.300560,95.746712 
	C96.220261,94.174812 93.504349,92.603485 90.408409,90.592010 
	C89.999817,89.389076 89.971252,88.626282 89.942688,87.863487 
	C93.738213,86.298660 97.533737,84.733826 101.696060,83.153358 
z"/>
<path fill="#E4D8D8" opacity="1.000000" stroke="none" 
	d="
M88.151474,112.433655 
	C90.760910,111.104698 93.545547,110.061935 97.097229,108.999001 
	C99.909592,108.648743 101.954918,108.318657 104.000237,107.988571 
	C107.235420,109.808334 110.470612,111.628098 113.861710,113.766647 
	C108.921700,116.061073 103.825790,118.036697 98.356079,119.997978 
	C96.800812,118.875854 95.713280,117.639694 94.415886,116.690331 
	C92.463226,115.261505 90.363747,114.033325 88.151474,112.433655 
z"/>
<path fill="#FCFDFC" opacity="1.000000" stroke="none" 
	d="
M133.964050,39.015297 
	C134.616699,38.551384 135.269333,38.087471 136.315735,37.337364 
	C138.460510,38.040691 140.211533,39.030220 141.978989,40.018303 
	C141.995422,40.016857 141.979141,40.042763 142.046082,40.242252 
	C142.254425,40.696884 142.459045,40.882198 142.880600,41.293518 
	C143.136124,42.021233 143.237961,42.453110 143.040497,43.050339 
	C143.418121,44.823715 144.095078,46.431744 144.874023,48.481277 
	C144.927368,51.935169 144.878708,54.947544 144.616211,57.967072 
	C144.402359,57.974220 143.974838,57.992516 143.602844,57.994492 
	C141.814316,57.661907 140.397751,57.327343 138.981888,56.592773 
	C137.309738,50.466942 135.636902,44.741119 133.964050,39.015297 
z"/>
<path fill="#343434" opacity="1.000000" stroke="none" 
	d="
M137.861160,175.919296 
	C134.189346,177.686203 130.605728,178.125092 128.837631,173.599030 
	C127.525970,170.241379 126.707085,166.453522 132.286392,164.610016 
	C139.794525,165.546143 141.269897,168.984299 137.861160,175.919296 
z"/>
<path fill="#E7E7E7" opacity="1.000000" stroke="none" 
	d="
M138.172729,176.173813 
	C141.269897,168.984299 139.794525,165.546143 132.544830,164.354706 
	C131.547150,163.856522 130.863495,163.418381 130.277313,162.875046 
	C128.056564,160.816620 128.350876,159.205215 131.385712,158.725128 
	C134.679184,158.204147 139.066147,155.591125 139.460037,162.260147 
	C139.498779,162.916183 141.464386,163.458389 142.789780,164.549255 
	C142.993927,168.309830 142.742493,171.587723 142.954575,174.835358 
	C143.140625,177.684509 142.053864,179.132843 139.325470,179.519623 
	C139.045074,178.489197 138.764694,177.458755 138.172729,176.173813 
z"/>
<path fill="#FBFDFA" opacity="1.000000" stroke="none" 
	d="
M79.999329,65.005791 
	C78.573975,66.000488 77.148613,66.995186 75.347214,67.617523 
	C73.702728,66.487961 72.434288,65.730759 71.073746,64.667046 
	C70.885475,63.944988 70.789299,63.529446 70.970306,62.960991 
	C70.796463,62.220451 70.345444,61.632824 69.644485,60.714222 
	C69.361702,55.940125 69.328850,51.497002 69.479218,47.043793 
	C69.662437,47.033714 70.028694,47.010342 70.403603,47.008476 
	C71.859314,47.676216 72.940117,48.345829 74.017540,49.453480 
	C73.920525,54.988403 73.758827,60.084927 79.511368,62.740692 
	C79.932777,62.935246 79.848503,64.225143 79.999329,65.005791 
z"/>
<path fill="#FBFEFB" opacity="1.000000" stroke="none" 
	d="
M148.993027,41.999847 
	C156.556473,48.718758 158.035034,55.401321 153.038666,61.665192 
	C152.251572,62.651951 150.197815,62.628330 148.373932,62.680687 
	C147.989792,61.814476 147.961456,61.339455 147.937836,60.542404 
	C148.052094,59.805359 148.161621,59.390350 148.521164,58.817554 
	C148.782410,57.747257 148.793625,56.834743 148.772873,55.494289 
	C148.706390,53.069988 148.671875,51.073635 148.967316,48.886559 
	C149.195862,46.463840 149.094452,44.231846 148.993027,41.999847 
z"/>
<path fill="#FDF3E2" opacity="1.000000" stroke="none" 
	d="
M133.693115,38.886234 
	C135.636902,44.741119 137.309738,50.466942 138.667755,56.734413 
	C137.561188,58.513119 136.769455,59.750179 135.977722,60.987247 
	C135.170395,62.565701 134.363052,64.144142 133.271561,65.859344 
	C131.826019,65.791649 130.664627,65.587204 130.118530,65.197342 
	C135.843506,61.524139 134.663635,56.011982 134.411545,51.291138 
	C134.288284,48.982265 135.841309,44.388657 130.566437,44.002029 
	C130.367615,44.022327 129.966690,44.016048 129.966690,44.016048 
	C129.151535,42.795071 128.336395,41.574089 127.260437,39.843044 
	C126.993034,38.888947 126.986443,38.444912 127.235039,38.000404 
	C127.660347,37.999699 127.830475,37.999470 128.296997,37.877975 
	C129.396042,37.504906 130.198730,37.253094 131.001404,37.001282 
	C131.808334,37.586582 132.615265,38.171879 133.693115,38.886234 
z"/>
<path fill="#FCF3E3" opacity="1.000000" stroke="none" 
	d="
M80.288223,64.738892 
	C79.848503,64.225143 79.932777,62.935246 79.511368,62.740692 
	C73.758827,60.084927 73.920525,54.988403 74.372643,49.385685 
	C77.255470,47.377068 75.965546,41.797169 81.018784,42.997551 
	C81.015648,43.442608 81.012505,43.887669 80.757797,44.835106 
	C80.350525,45.899746 80.194817,46.462013 80.039108,47.024277 
	C80.273048,50.923550 80.560371,54.820660 80.718086,58.723015 
	C80.795334,60.634315 80.631714,62.555355 80.288223,64.738892 
z"/>
<path fill="#272727" opacity="1.000000" stroke="none" 
	d="
M117.601196,165.176224 
	C117.601120,163.055237 117.601120,161.400681 117.601120,159.331161 
	C118.937920,159.185760 120.150818,159.053833 121.665672,158.889053 
	C121.665672,164.893448 121.665672,170.639648 121.665672,176.669617 
	C120.395332,176.669617 119.172272,176.669617 117.601273,176.669617 
	C117.601273,172.926956 117.601273,169.284805 117.601196,165.176224 
z"/>
<path fill="#282828" opacity="1.000000" stroke="none" 
	d="
M139.287109,179.899796 
	C142.053864,179.132843 143.140625,177.684509 142.954575,174.835358 
	C142.742493,171.587723 142.993927,168.309830 143.173096,164.607269 
	C144.422180,164.281525 145.542053,164.393600 147.054245,164.544952 
	C147.054245,168.894104 147.406097,173.188736 146.878754,177.372543 
	C146.671692,179.015457 144.721375,180.781601 143.117340,181.750931 
	C142.389801,182.190582 140.571976,180.826050 139.287109,179.899796 
z"/>
<path fill="#FCF7F1" opacity="1.000000" stroke="none" 
	d="
M81.252274,42.778069 
	C75.965546,41.797169 77.255470,47.377068 74.376022,48.947643 
	C72.940117,48.345829 71.859314,47.676216 70.397186,46.633934 
	C70.014069,45.512913 70.012268,44.764565 70.005844,44.006851 
	C70.001213,43.997490 70.021431,44.006569 70.341507,43.837509 
	C71.439285,40.781185 72.216988,37.893917 72.994690,35.006649 
	C75.825050,37.523960 78.655403,40.041271 81.252274,42.778069 
z"/>
<path fill="#D9A375" opacity="1.000000" stroke="none" 
	d="
M69.295998,47.053875 
	C69.328850,51.497002 69.361702,55.940125 69.656052,61.002811 
	C70.176079,62.119549 70.434601,62.616722 70.693123,63.113899 
	C70.789299,63.529446 70.885475,63.944988 70.869003,64.876923 
	C70.208015,65.543587 69.659676,65.693878 69.084946,65.850067 
	C69.058563,65.855980 69.111023,65.872482 69.111023,65.872482 
	C69.062012,65.708900 69.013000,65.545311 68.802505,64.956680 
	C68.515335,64.249184 68.301102,64.076340 67.998344,64.013100 
	C67.715782,63.210117 67.433220,62.407131 67.007477,61.043686 
	C66.480965,59.901482 66.097656,59.319736 65.714340,58.737991 
	C65.647385,58.079651 65.580429,57.421314 65.633240,56.072880 
	C65.867325,52.615726 65.981644,49.848667 66.095963,47.081608 
	C66.095963,47.081608 66.089104,47.019703 66.285866,46.955231 
	C66.713135,46.647114 66.791985,46.361588 66.719162,46.034187 
	C66.826263,45.629662 66.933357,45.225136 67.311646,44.279892 
	C68.086212,43.228481 68.589577,42.717793 69.092949,42.207104 
	C69.402443,42.806923 69.711937,43.406746 70.021431,44.006569 
	C70.021431,44.006569 70.001213,43.997490 69.712891,44.180691 
	C69.381706,45.260551 69.338852,46.157215 69.295998,47.053875 
z"/>
<path fill="#FDE7E3" opacity="1.000000" stroke="none" 
	d="
M104.249313,107.712204 
	C101.954918,108.318657 99.909592,108.648743 97.472595,108.999207 
	C101.203712,107.339462 105.329369,105.666344 109.448624,103.977562 
	C115.724373,101.404678 117.426933,97.411659 114.943893,90.483589 
	C118.345215,91.694183 119.184547,96.882652 116.821510,100.677856 
	C113.938065,105.308891 109.213676,106.298180 104.249313,107.712204 
z"/>
<path fill="#F9ECEA" opacity="1.000000" stroke="none" 
	d="
M89.544586,87.858109 
	C89.971252,88.626282 89.999817,89.389076 90.050903,90.530487 
	C87.772202,89.144257 83.803192,87.568130 83.576904,85.568481 
	C83.269478,82.851791 82.774124,78.240578 87.937668,77.131302 
	C87.119225,80.830521 84.272118,84.636810 89.544586,87.858109 
z"/>
<path fill="#FCFDFC" opacity="1.000000" stroke="none" 
	d="
M130.928802,36.630669 
	C130.198730,37.253094 129.396042,37.504906 128.265274,37.591064 
	C127.510849,37.116146 127.084511,36.806877 126.658173,36.497612 
	C126.765396,36.998699 126.872620,37.499790 126.979843,38.000877 
	C126.986443,38.444912 126.993034,38.888947 127.001915,39.666016 
	C125.805504,40.836746 124.606812,41.674442 123.204712,42.255211 
	C122.658333,39.672882 122.315369,37.347477 121.890778,34.468632 
	C124.757980,33.162586 127.846191,34.386467 130.928802,36.630669 
z"/>
<path fill="#FDF2E9" opacity="1.000000" stroke="none" 
	d="
M148.949722,41.630447 
	C149.094452,44.231846 149.195862,46.463840 148.769104,48.593815 
	C146.497391,44.647339 144.753860,40.802887 143.009186,36.628807 
	C143.008270,35.859406 143.008545,35.419624 143.008804,34.979843 
	C148.054123,34.182186 146.789734,39.308918 148.949722,41.630447 
z"/>
<path fill="#FCEEE3" opacity="1.000000" stroke="none" 
	d="
M142.748581,34.874374 
	C143.008545,35.419624 143.008270,35.859406 142.675659,36.611355 
	C142.216385,37.955597 142.089462,38.987671 141.962555,40.019749 
	C140.211533,39.030220 138.460510,38.040691 136.361206,37.010681 
	C134.392227,34.213448 136.000320,32.982468 138.700897,32.377655 
	C139.718185,33.112930 140.354706,33.558334 140.991211,34.003742 
	C141.490265,34.258797 141.989304,34.513851 142.748581,34.874374 
z"/>
<path fill="#FCF3E3" opacity="1.000000" stroke="none" 
	d="
M70.341507,43.837509 
	C69.711937,43.406746 69.402443,42.806923 69.092949,42.207104 
	C68.589577,42.717793 68.086212,43.228481 67.337875,43.966766 
	C67.299393,43.019295 67.505867,41.844219 67.857376,40.336914 
	C68.670898,38.573147 69.339386,37.141613 70.003937,35.355038 
	C70.000000,35.000000 70.007393,35.009884 70.007393,35.009884 
	C70.450272,35.008713 70.893158,35.007542 71.916809,35.004498 
	C72.497574,35.002628 72.994820,35.005085 72.994820,35.005085 
	C72.994820,35.005085 72.999870,35.000256 72.997284,35.003452 
	C72.216988,37.893917 71.439285,40.781185 70.341507,43.837509 
z"/>
<path fill="#FCF7F1" opacity="1.000000" stroke="none" 
	d="
M73.994560,68.993301 
	C73.599800,71.842323 71.982208,72.707802 69.630554,71.183723 
	C67.837784,70.021851 65.658752,68.493874 68.759995,65.958923 
	C69.111023,65.872482 69.058563,65.855980 69.096100,66.211899 
	C70.753944,67.376312 72.374252,68.184807 73.994560,68.993301 
z"/>
<path fill="#FBFEFB" opacity="1.000000" stroke="none" 
	d="
M147.990616,68.985794 
	C149.102631,75.829224 143.421066,72.683105 140.369843,73.639847 
	C140.029160,72.921677 140.043610,72.490593 140.396805,72.049065 
	C141.826660,71.368172 142.917755,70.697716 144.358368,70.017532 
	C145.802124,69.667137 146.896362,69.326469 147.990616,68.985794 
z"/>
<path fill="#FCF3E3" opacity="1.000000" stroke="none" 
	d="
M65.751999,47.054993 
	C65.981644,49.848667 65.867325,52.615726 65.597031,55.743065 
	C64.737488,53.639465 64.033920,51.175587 63.180817,48.344955 
	C63.823536,47.661602 64.615791,47.344994 65.751999,47.054993 
z"/>
<path fill="#FDF2E9" opacity="1.000000" stroke="none" 
	d="
M147.990692,68.558975 
	C146.896362,69.326469 145.802124,69.667137 144.477737,69.721207 
	C144.502655,68.636719 144.757721,67.838837 145.095337,66.700943 
	C146.096313,64.528763 147.014709,62.696598 147.933121,60.864437 
	C147.961456,61.339455 147.989792,61.814476 148.027039,62.646534 
	C148.020905,64.713097 148.005844,66.422623 147.990692,68.558975 
z"/>
<path fill="#F9ECEA" opacity="1.000000" stroke="none" 
	d="
M97.758171,71.992355 
	C95.340706,73.382668 92.569489,74.711845 89.444550,76.119232 
	C90.831078,72.766357 93.359116,70.870438 97.758171,71.992355 
z"/>
<path fill="#FCF3E3" opacity="1.000000" stroke="none" 
	d="
M74.212463,68.885422 
	C72.374252,68.184807 70.753944,67.376312 69.122482,66.205994 
	C69.659676,65.693878 70.208015,65.543587 70.961105,65.183426 
	C72.434288,65.730759 73.702728,66.487961 74.979530,67.621216 
	C74.887955,68.318756 74.702118,68.578842 74.212463,68.885422 
z"/>
<path fill="#F9E9E8" opacity="1.000000" stroke="none" 
	d="
M91.613739,44.993263 
	C90.858192,47.493877 89.731209,49.995811 88.401688,52.779461 
	C85.770309,49.073338 87.949417,46.823872 91.613739,44.993263 
z"/>
<path fill="#F9ECEA" opacity="1.000000" stroke="none" 
	d="
M91.272964,64.018005 
	C91.677437,63.782772 91.996750,63.918404 92.580292,64.091522 
	C92.844513,64.128998 92.839081,64.139549 92.997803,64.427536 
	C94.390556,65.084274 95.624603,65.453026 96.858643,65.821777 
	C96.858643,65.821777 97.000725,65.984184 97.075447,66.063942 
	C94.150566,68.997742 92.528229,67.172241 91.272964,64.018005 
z"/>
<path fill="#F9E9E8" opacity="1.000000" stroke="none" 
	d="
M107.918411,42.491726 
	C105.295349,42.562874 102.574455,42.264042 99.433006,41.900211 
	C101.948494,41.930725 104.884537,42.026234 107.918411,42.491726 
z"/>
<path fill="#F9ECEA" opacity="1.000000" stroke="none" 
	d="
M88.170998,57.841980 
	C89.207497,59.263531 90.167809,61.135162 91.239227,63.326298 
	C86.878128,63.920815 88.287453,60.619370 88.170998,57.841980 
z"/>
<path fill="#FCF7F1" opacity="1.000000" stroke="none" 
	d="
M52.185883,75.189384 
	C52.942348,74.416199 53.663483,73.997055 54.384617,73.577911 
	C54.457462,74.461205 54.530308,75.344505 54.603153,76.227798 
	C53.785618,75.999680 52.968082,75.771561 52.185883,75.189384 
z"/>
<path fill="#F9E9E8" opacity="1.000000" stroke="none" 
	d="
M96.866104,41.885918 
	C95.580589,43.042316 94.102654,43.919659 92.308640,44.891548 
	C91.926888,41.607193 94.129440,41.370361 96.866104,41.885918 
z"/>
<path fill="#FCF3E3" opacity="1.000000" stroke="none" 
	d="
M65.381912,58.873341 
	C66.097656,59.319736 66.480965,59.901482 66.843163,60.765259 
	C66.231194,60.367756 65.640335,59.688221 65.381912,58.873341 
z"/>
<path fill="#FCF7F1" opacity="1.000000" stroke="none" 
	d="
M80.327003,46.983944 
	C80.194817,46.462013 80.350525,45.899746 80.752960,45.168873 
	C80.871429,45.648045 80.743164,46.295830 80.327003,46.983944 
z"/>
<path fill="#FDF2E9" opacity="1.000000" stroke="none" 
	d="
M140.952362,33.682831 
	C140.354706,33.558334 139.718185,33.112930 139.036926,32.351742 
	C139.632614,32.477947 140.273056,32.919933 140.952362,33.682831 
z"/>
<path fill="#FDFDFC" opacity="1.000000" stroke="none" 
	d="
M120.000153,77.999847 
	C120.510170,78.302139 121.020035,78.604591 121.529892,78.907043 
	C121.348228,79.116592 121.166573,79.326141 120.984917,79.535698 
	C120.679863,79.213387 120.374802,78.891075 120.034714,78.284531 
	C119.999695,78.000305 120.000000,78.000000 120.000153,77.999847 
z"/>
<path fill="#FDF2E9" opacity="1.000000" stroke="none" 
	d="
M140.058060,72.059502 
	C140.043610,72.490593 140.029160,72.921677 140.010406,73.676239 
	C139.561310,73.999352 139.116531,73.999001 138.338318,73.997955 
	C138.170715,73.442955 138.336548,72.888649 139.013184,72.174850 
	C139.701996,72.030075 139.880035,72.044785 140.058060,72.059502 
z"/>
<path fill="#FCF7F1" opacity="1.000000" stroke="none" 
	d="
M68.061371,64.204308 
	C68.301102,64.076340 68.515335,64.249184 68.662239,64.742348 
	C68.436516,64.827972 68.250160,64.642120 68.061371,64.204308 
z"/>
<path fill="#FCF7F1" opacity="1.000000" stroke="none" 
	d="
M70.004944,35.003639 
	C69.886116,34.863655 69.762337,34.720028 69.638565,34.576401 
	C69.724930,34.627033 69.811302,34.677662 69.952530,34.869087 
	C70.007393,35.009884 70.000000,35.000000 70.004944,35.003639 
z"/>
<path fill="#FCF7F1" opacity="1.000000" stroke="none" 
	d="
M72.908943,34.835518 
	C72.994820,35.005085 72.497574,35.002628 72.248962,35.001007 
	C72.274582,34.888241 72.548828,34.777092 72.908943,34.835518 
z"/>
<path fill="#F9E9E8" opacity="1.000000" stroke="none" 
	d="
M110.009995,43.733360 
	C109.681351,43.856262 109.355782,43.724148 108.903091,43.353195 
	C108.978722,43.078857 109.181465,43.043365 109.692390,42.988152 
	C110.004730,43.138409 110.008896,43.308380 110.009995,43.733360 
z"/>
<path fill="#EBEBEB" opacity="1.000000" stroke="none" 
	d="
M36.790817,171.763092 
	C34.319965,172.986847 31.953199,173.815872 29.586433,174.644913 
	C29.203543,174.015945 28.820654,173.386993 28.437765,172.758026 
	C30.574371,170.848816 32.710976,168.939590 34.847580,167.030380 
	C35.530022,168.476364 36.212460,169.922363 36.790817,171.763092 
z"/>
<path fill="#FDFCF8" opacity="1.000000" stroke="none" 
	d="
M136.348297,60.992229 
	C136.769455,59.750179 137.561188,58.513119 138.667068,57.134418 
	C140.397751,57.327343 141.814316,57.661907 143.607468,58.365662 
	C143.983124,59.476696 143.982162,60.218533 143.938812,61.296417 
	C143.822647,62.076817 143.748856,62.521172 143.344208,62.973053 
	C142.352600,62.991158 141.691864,63.001728 141.031128,63.012306 
	C139.593719,62.340611 138.156296,61.668911 136.348297,60.992229 
z"/>
<path fill="#FCEEE3" opacity="1.000000" stroke="none" 
	d="
M140.396805,72.049065 
	C139.880035,72.044785 139.701996,72.030075 139.256027,72.006149 
	C138.986710,71.553673 138.985336,71.110405 139.281128,70.195892 
	C140.705582,69.154099 141.832870,68.583549 143.249573,67.972519 
	C144.030258,67.635002 144.521530,67.337975 145.012787,67.040955 
	C144.757721,67.838837 144.502655,68.636719 144.128235,69.730927 
	C142.917755,70.697716 141.826660,71.368172 140.396805,72.049065 
z"/>
<path fill="#FDF2E9" opacity="1.000000" stroke="none" 
	d="
M142.960144,68.013000 
	C141.832870,68.583549 140.705582,69.154099 139.283936,69.863419 
	C139.737228,68.998337 140.484894,67.994492 141.783524,66.993835 
	C142.334488,66.997025 142.744003,67.010048 142.837830,67.252213 
	C142.941147,67.667252 142.950638,67.840134 142.960144,68.013000 
z"/>
<path fill="#FCEEE3" opacity="1.000000" stroke="none" 
	d="
M142.744003,67.010048 
	C142.744003,67.010048 142.334488,66.997025 142.129272,66.981094 
	C141.643509,65.874573 141.362961,64.783981 141.056763,63.352848 
	C141.691864,63.001728 142.352600,62.991158 143.384415,63.321819 
	C143.418320,64.778717 143.081161,65.894386 142.744003,67.010048 
z"/>
<path fill="#F9E9E8" opacity="1.000000" stroke="none" 
	d="
M110.923935,44.658302 
	C110.664864,44.909519 110.375038,44.777653 110.089951,44.231216 
	C110.339386,44.043583 110.605553,44.196442 110.923935,44.658302 
z"/>
<path fill="#F9ECEA" opacity="1.000000" stroke="none" 
	d="
M113.469223,60.833946 
	C113.201683,60.637905 113.276886,60.329960 113.703865,59.915833 
	C113.953117,60.111622 113.871887,60.415756 113.469223,60.833946 
z"/>
<path fill="#CD6C48" opacity="1.000000" stroke="none" 
	d="
M56.348141,40.389214 
	C56.179455,44.187363 55.122768,48.003288 55.180973,51.802135 
	C55.256584,56.737076 56.218830,61.658428 56.813408,66.704079 
	C51.401573,61.229984 51.043819,48.704334 56.348141,40.389214 
z"/>
<path fill="#FCF3E3" opacity="1.000000" stroke="none" 
	d="
M66.550308,46.164722 
	C66.791985,46.361588 66.713135,46.647114 66.271408,46.982712 
	C66.074013,46.776382 66.181099,46.516579 66.550308,46.164722 
z"/>
<path fill="#9C3134" opacity="1.000000" stroke="none" 
	d="
M94.489540,51.024147 
	C93.350357,50.948521 92.409119,50.786457 90.939270,50.533379 
	C93.268021,47.002186 95.139824,44.137905 99.683136,43.887817 
	C105.137451,43.587585 109.325165,44.801670 111.546799,50.781040 
	C109.954468,50.137600 108.674614,49.620430 107.035919,49.128300 
	C106.677071,49.153343 106.308090,49.133015 106.118668,48.722839 
	C105.260979,48.280445 104.592705,48.248222 103.924438,48.216000 
	C102.579346,48.233940 101.234253,48.251877 99.308708,47.970444 
	C97.509071,48.508518 96.289894,49.345959 95.070717,50.183395 
	C95.048836,50.488628 94.921089,50.740067 94.489540,51.024147 
z"/>
<path fill="#9B3238" opacity="1.000000" stroke="none" 
	d="
M92.837112,64.145172 
	C92.251404,62.249474 91.594902,60.356884 91.117538,58.420147 
	C90.670441,56.606194 90.413063,54.745483 90.072189,52.905350 
	C90.523964,52.830147 90.975731,52.754948 91.427505,52.679745 
	C91.832413,53.684189 92.237320,54.688637 92.937828,55.885403 
	C93.233429,56.077724 93.260750,56.215752 93.246231,56.616039 
	C93.517677,57.334682 93.803650,57.653038 94.089615,57.971390 
	C94.667152,58.435040 95.244698,58.898689 95.919739,60.023624 
	C94.957863,61.836456 93.898476,62.988003 92.839081,64.139557 
	C92.839081,64.139549 92.844513,64.128998 92.837112,64.145172 
z"/>
<path fill="#924445" opacity="1.000000" stroke="none" 
	d="
M92.997803,64.427536 
	C93.898476,62.988003 94.957863,61.836456 96.034912,60.278748 
	C98.564774,61.222584 99.920677,62.826317 97.052673,65.568069 
	C95.624603,65.453026 94.390556,65.084274 92.997803,64.427536 
z"/>
<path fill="#924445" opacity="1.000000" stroke="none" 
	d="
M95.383484,50.096626 
	C96.289894,49.345959 97.509071,48.508518 98.905289,47.950577 
	C97.953636,48.823341 96.824944,49.416599 95.383484,50.096626 
z"/>
<path fill="#924445" opacity="1.000000" stroke="none" 
	d="
M104.133224,48.414047 
	C104.592705,48.248222 105.260979,48.280445 105.973755,48.608208 
	C105.459518,48.806530 104.900764,48.709309 104.133224,48.414047 
z"/>
<path fill="#924445" opacity="1.000000" stroke="none" 
	d="
M94.030434,57.655224 
	C93.803650,57.653038 93.517677,57.334682 93.220322,56.681446 
	C93.463028,56.677399 93.717140,57.008228 94.030434,57.655224 
z"/>
<path fill="#D09565" opacity="1.000000" stroke="none" 
	d="
M130.765259,43.981735 
	C135.841309,44.388657 134.288284,48.982265 134.411545,51.291138 
	C134.663635,56.011982 135.843506,61.524139 130.349457,65.008911 
	C130.665649,60.625172 131.366180,56.244461 131.864227,51.275276 
	C131.530594,49.612568 131.399414,48.538338 131.424622,47.289734 
	C131.373505,46.776028 131.165970,46.436691 130.930176,45.744049 
	C130.856339,44.921074 130.810806,44.451405 130.765259,43.981735 
z"/>
<path fill="#FCFDFC" opacity="1.000000" stroke="none" 
	d="
M131.268219,47.464108 
	C131.399414,48.538338 131.530594,49.612568 131.627991,50.991222 
	C130.879654,52.119045 130.165085,52.942440 128.288605,55.104687 
	C127.612312,50.813843 127.093803,47.837624 126.786346,44.839760 
	C126.766701,44.648117 128.382050,44.288788 129.601746,44.011757 
	C129.966690,44.016048 130.367615,44.022327 130.566437,44.002029 
	C130.810806,44.451405 130.856339,44.921074 130.981842,46.091450 
	C131.130585,47.016140 131.199402,47.240124 131.268219,47.464108 
z"/>
<path fill="#FDFDFC" opacity="1.000000" stroke="none" 
	d="
M127.116081,60.537544 
	C127.445641,58.852322 127.849800,57.527748 128.553406,55.221806 
	C130.473068,60.533962 130.402588,60.705063 127.116081,60.537544 
z"/>
<path fill="#D17A5A" opacity="1.000000" stroke="none" 
	d="
M142.837830,67.252213 
	C143.081161,65.894386 143.418320,64.778717 143.715286,63.314293 
	C143.748856,62.521172 143.822647,62.076817 144.216949,61.108467 
	C144.635010,59.709621 144.732529,58.834774 144.830048,57.959923 
	C144.878708,54.947544 144.927368,51.935169 144.924850,48.136959 
	C144.362381,45.862415 143.851089,44.373703 143.339798,42.884987 
	C143.237961,42.453110 143.136124,42.021233 142.868622,41.067802 
	C142.540314,40.265423 142.299057,40.097595 141.979141,40.042763 
	C141.979141,40.042763 141.995422,40.016857 141.978973,40.018303 
	C142.089462,38.987671 142.216385,37.955597 142.676819,36.940979 
	C144.753860,40.802887 146.497391,44.647339 148.439148,48.784534 
	C148.671875,51.073635 148.706390,53.069988 148.577148,55.750092 
	C148.365982,57.281010 148.318573,58.128178 148.271149,58.975342 
	C148.161621,59.390350 148.052094,59.805359 147.937836,60.542404 
	C147.014709,62.696598 146.096313,64.528763 145.095337,66.700943 
	C144.521530,67.337975 144.030258,67.635002 143.249573,67.972519 
	C142.950638,67.840134 142.941147,67.667252 142.837830,67.252213 
z"/>
<path fill="#FCEEE3" opacity="1.000000" stroke="none" 
	d="
M143.040497,43.050339 
	C143.851089,44.373703 144.362381,45.862415 144.822845,47.695450 
	C144.095078,46.431744 143.418121,44.823715 143.040497,43.050339 
z"/>
<path fill="#FCEEE3" opacity="1.000000" stroke="none" 
	d="
M144.616211,57.967072 
	C144.732529,58.834774 144.635010,59.709621 144.259338,60.772423 
	C143.982162,60.218533 143.983124,59.476696 143.979462,58.363686 
	C143.974838,57.992516 144.402359,57.974220 144.616211,57.967072 
z"/>
<path fill="#FCEEE3" opacity="1.000000" stroke="none" 
	d="
M142.046082,40.242252 
	C142.299057,40.097595 142.540314,40.265423 142.714935,40.771965 
	C142.459045,40.882198 142.254425,40.696884 142.046082,40.242252 
z"/>
<path fill="#FCF3E3" opacity="1.000000" stroke="none" 
	d="
M70.970306,62.960991 
	C70.434601,62.616722 70.176079,62.119549 69.905991,61.333782 
	C70.345444,61.632824 70.796463,62.220451 70.970306,62.960991 
z"/>
<path fill="#FCF3E3" opacity="1.000000" stroke="none" 
	d="
M69.479218,47.043793 
	C69.338852,46.157215 69.381706,45.260551 69.717522,44.190052 
	C70.012268,44.764565 70.014069,45.512913 70.022278,46.635803 
	C70.028694,47.010342 69.662437,47.033714 69.479218,47.043793 
z"/>
<path fill="#FDF2E9" opacity="1.000000" stroke="none" 
	d="
M148.521179,58.817558 
	C148.318573,58.128178 148.365982,57.281010 148.609131,56.178040 
	C148.793625,56.834743 148.782410,57.747257 148.521179,58.817558 
z"/>
<path fill="#FCF7EC" opacity="1.000000" stroke="none" 
	d="
M127.235031,38.000404 
	C126.872620,37.499790 126.765396,36.998699 126.658173,36.497612 
	C127.084511,36.806877 127.510849,37.116146 127.968903,37.712326 
	C127.830475,37.999470 127.660347,37.999699 127.235031,38.000404 
z"/>
<path fill="#FDF3E2" opacity="1.000000" stroke="none" 
	d="
M131.424622,47.289734 
	C131.199402,47.240124 131.130585,47.016140 131.010117,46.444756 
	C131.165970,46.436691 131.373505,46.776028 131.424622,47.289734 
z"/>
</svg>