<svg xmlns="http://www.w3.org/2000/svg" width="874" height="874" viewBox="0 0 874 874" version="1.1"><path d="M 403.500 9.433 C 296.627 18.896, 201.356 64.236, 128.375 140.366 C 87.139 183.382, 54.607 235.532, 34.993 290.063 C 30.827 301.646, 24.012 323, 24.482 323 C 24.645 323, 48.790 297.278, 78.139 265.841 L 131.500 208.682 132 249.358 L 132.500 290.034 170.367 249.452 L 208.234 208.870 252.367 209.261 C 288.643 209.581, 297.390 209.927, 301.500 211.204 C 326.371 218.929, 342.209 233.214, 349.692 254.672 C 352.113 261.614, 352.410 263.858, 352.322 274.500 C 352.057 306.557, 339.894 327.717, 318.660 333.064 L 314.052 334.224 317.776 336.705 C 332.988 346.836, 350.224 373.091, 361.953 404 L 365.938 414.500 365.969 339.493 L 366 264.487 393.757 236.743 C 409.023 221.484, 421.735 209, 422.007 209 C 422.278 209, 422.384 260.300, 422.242 323 L 421.983 437 363.128 437 L 304.274 437 301.016 427.750 C 289.047 393.760, 275.705 364.858, 268.521 357.360 L 264.343 353 252.171 353 L 240 353 240 395 L 240 437 210.010 437 L 180.019 437 179.760 389.346 L 179.500 341.691 135.500 389.260 C 111.300 415.422, 91.167 436.867, 90.760 436.914 C 90.353 436.961, 89.903 416.224, 89.760 390.832 L 89.500 344.664 49.103 388.026 L 8.706 431.387 9.386 449.944 C 12.741 541.425, 41.588 623.191, 96.019 695.500 C 184.715 813.330, 329.354 877.382, 476.509 863.995 C 606.458 852.174, 722.414 782.853, 795.631 673.217 L 804.011 660.669 803.755 571.084 L 803.500 481.500 782.755 481.230 L 762.010 480.959 761.755 573.021 L 761.500 665.082 739 665.082 L 716.500 665.082 716.245 573.041 L 715.990 481 695.500 481 L 675.010 481 674.755 573.015 L 674.500 665.030 609.500 665.030 L 544.500 665.030 544.245 572.994 L 543.990 480.959 523.745 481.229 L 503.500 481.500 503.245 573.500 L 502.990 665.500 481.245 665.290 L 459.500 665.080 459.266 573.290 L 459.033 481.500 440.516 481.228 L 422 480.956 422 458.978 L 422 437 505.500 437 L 589 437 589 528.500 L 589 620 610 620 L 631 620 631 528.500 L 631 437 740 437 L 849 437 849.030 496.750 C 849.048 530.478, 849.434 555.847, 849.918 555 C 850.390 554.175, 851.919 549, 853.316 543.500 C 865.132 496.986, 869.198 446.125, 864.906 398.500 C 854.348 281.341, 797.026 175.115, 704.500 101.242 C 641.118 50.637, 565.361 19.613, 482.850 10.471 C 463.211 8.295, 422.384 7.761, 403.500 9.433 M 238 280 L 238 301 259.750 300.924 C 273.739 300.875, 282.636 300.429, 284.682 299.674 C 297.994 294.763, 301.626 274.976, 291.156 264.403 C 286.218 259.415, 283.826 259, 260.032 259 L 238 259 238 280" stroke="none" fill="#0474bb" fill-rule="evenodd"/><path d="M -0 437.001 L -0 874.002 437.250 873.751 L 874.500 873.500 874.751 436.750 L 875.002 -0 437.501 -0 L 0 0 -0 437.001 M 0.495 437.500 C 0.495 677.850, 0.610 776.324, 0.750 656.332 C 0.890 536.339, 0.890 339.689, 0.750 219.332 C 0.610 98.974, 0.495 197.150, 0.495 437.500 M 403.500 9.433 C 296.627 18.896, 201.356 64.236, 128.375 140.366 C 87.139 183.382, 54.607 235.532, 34.993 290.063 C 30.827 301.646, 24.012 323, 24.482 323 C 24.645 323, 48.790 297.278, 78.139 265.841 L 131.500 208.682 132 249.358 L 132.500 290.034 170.367 249.452 L 208.234 208.870 252.367 209.261 C 288.643 209.581, 297.390 209.927, 301.500 211.204 C 326.371 218.929, 342.209 233.214, 349.692 254.672 C 352.113 261.614, 352.410 263.858, 352.322 274.500 C 352.057 306.557, 339.894 327.717, 318.660 333.064 L 314.052 334.224 317.776 336.705 C 332.988 346.836, 350.224 373.091, 361.953 404 L 365.938 414.500 365.969 339.493 L 366 264.487 393.757 236.743 C 409.023 221.484, 421.735 209, 422.007 209 C 422.278 209, 422.384 260.300, 422.242 323 L 421.983 437 363.128 437 L 304.274 437 301.016 427.750 C 289.047 393.760, 275.705 364.858, 268.521 357.360 L 264.343 353 252.171 353 L 240 353 240 395 L 240 437 210.010 437 L 180.019 437 179.760 389.346 L 179.500 341.691 135.500 389.260 C 111.300 415.422, 91.167 436.867, 90.760 436.914 C 90.353 436.961, 89.903 416.224, 89.760 390.832 L 89.500 344.664 49.103 388.026 L 8.706 431.387 9.386 449.944 C 12.741 541.425, 41.588 623.191, 96.019 695.500 C 184.715 813.330, 329.354 877.382, 476.509 863.995 C 606.458 852.174, 722.414 782.853, 795.631 673.217 L 804.011 660.669 803.755 571.084 L 803.500 481.500 782.755 481.230 L 762.010 480.959 761.755 573.021 L 761.500 665.082 739 665.082 L 716.500 665.082 716.245 573.041 L 715.990 481 695.500 481 L 675.010 481 674.755 573.015 L 674.500 665.030 609.500 665.030 L 544.500 665.030 544.245 572.994 L 543.990 480.959 523.745 481.229 L 503.500 481.500 503.245 573.500 L 502.990 665.500 481.245 665.290 L 459.500 665.080 459.266 573.290 L 459.033 481.500 440.516 481.228 L 422 480.956 422 458.978 L 422 437 505.500 437 L 589 437 589 528.500 L 589 620 610 620 L 631 620 631 528.500 L 631 437 740 437 L 849 437 849.030 496.750 C 849.048 530.478, 849.434 555.847, 849.918 555 C 850.390 554.175, 851.919 549, 853.316 543.500 C 865.132 496.986, 869.198 446.125, 864.906 398.500 C 854.348 281.341, 797.026 175.115, 704.500 101.242 C 641.118 50.637, 565.361 19.613, 482.850 10.471 C 463.211 8.295, 422.384 7.761, 403.500 9.433 M 238 280 L 238 301 259.750 300.924 C 273.739 300.875, 282.636 300.429, 284.682 299.674 C 297.994 294.763, 301.626 274.976, 291.156 264.403 C 286.218 259.415, 283.826 259, 260.032 259 L 238 259 238 280" stroke="none" fill="#fbfbfb" fill-rule="evenodd"/></svg>